<?xml version="1.0" encoding="utf-8"?>
<!-- Generator: Adobe Illustrator 24.1.2, SVG Export Plug-In . SVG Version: 6.00 Build 0)  -->
<svg version="1.1" id="Layer_3" xmlns="http://www.w3.org/2000/svg" xmlns:xlink="http://www.w3.org/1999/xlink" x="0px" y="0px"
	 viewBox="0 0 383 200.3" style="enable-background:new 0 0 383 200.3;" xml:space="preserve">
<style type="text/css">
	.st0{fill:#EEEFED;}
	.st1{stroke:#000000;stroke-width:1.912;stroke-miterlimit:10;}
	.st2{fill:#F9B443;}
	.st3{fill:none;stroke:#000000;stroke-width:1.912;stroke-miterlimit:10;}
	.st4{stroke:#000000;stroke-width:1.0697;stroke-miterlimit:10;}
	.st5{fill:none;stroke:#000000;stroke-width:1.0697;stroke-miterlimit:10;}
	.st6{stroke:#000000;stroke-width:1.082;stroke-miterlimit:10;}
	.st7{fill:none;stroke:#000000;stroke-width:1.082;stroke-miterlimit:10;}
	.st8{fill:none;stroke:#000000;stroke-width:1.5;stroke-miterlimit:10;}
	.st9{fill:#E72B78;}
	.st10{fill:#FFFFFF;}
</style>
<path class="st0" d="M357.3,194.1H25.4c-10.6,0-19.3-8.7-19.3-19.3V25.6C6,14.9,14.7,6.2,25.4,6.2h331.9c10.6,0,19.3,8.7,19.3,19.3
	v149.1C376.6,185.4,367.9,194.1,357.3,194.1z"/>
<line class="st1" x1="257.5" y1="100.1" x2="134.4" y2="100.1"/>
<polygon class="st3" points="247.3,100.1 247.3,115.4 234,107.8 220.8,100.1 234,92.5 247.3,84.8 "/>
<polygon class="st3" points="135.8,100.1 135.8,115.4 149,107.8 162.3,100.1 149,92.5 135.8,84.8 "/>
<path class="st2" d="M325.1,131h-77.2c-2.1,0-3.9-1.7-3.9-3.9V73.2c0-2.1,1.7-3.9,3.9-3.9h77.2c2.1,0,3.9,1.7,3.9,3.9v53.9
	C329,129.3,327.3,131,325.1,131z"/>
<path class="st2" d="M135.1,131H57.9c-2.1,0-3.9-1.7-3.9-3.9V73.2c0-2.1,1.7-3.9,3.9-3.9h77.2c2.1,0,3.9,1.7,3.9,3.9v53.9
	C139,129.3,137.3,131,135.1,131z"/>
</svg>
