<?xml version="1.0" encoding="utf-8"?>
<!-- Generator: Adobe Illustrator 24.1.2, SVG Export Plug-In . SVG Version: 6.00 Build 0)  -->
<svg version="1.1" id="Layer_3" xmlns="http://www.w3.org/2000/svg" xmlns:xlink="http://www.w3.org/1999/xlink" x="0px" y="0px"
	 viewBox="0 0 383 200.3" style="enable-background:new 0 0 383 200.3;" xml:space="preserve">
<style type="text/css">
	.st0{fill:#EEEFED;}
	.st1{stroke:#000000;stroke-width:1.912;stroke-miterlimit:10;}
	.st2{fill:#F9B443;}
	.st3{fill:none;stroke:#000000;stroke-width:1.912;stroke-miterlimit:10;}
	.st4{stroke:#000000;stroke-width:1.0697;stroke-miterlimit:10;}
	.st5{fill:none;stroke:#000000;stroke-width:1.0697;stroke-miterlimit:10;}
	.st6{stroke:#000000;stroke-width:1.082;stroke-miterlimit:10;}
	.st7{fill:none;stroke:#000000;stroke-width:1.082;stroke-miterlimit:10;}
	.st8{fill:none;stroke:#000000;stroke-width:1.5;stroke-miterlimit:10;}
	.st9{fill:#E72B78;}
	.st10{fill:#FFFFFF;}
</style>
<path class="st0" d="M357.4,194.1H25.6c-10.6,0-19.3-8.7-19.3-19.3V25.6c0-10.6,8.7-19.3,19.3-19.3h331.9c10.6,0,19.3,8.7,19.3,19.3
	v149.1C376.8,185.4,368.1,194.1,357.4,194.1z"/>
<line class="st4" x1="301.1" y1="140.1" x2="212.3" y2="140.1"/>
<polygon class="st5" points="209.9,140.1 209.9,148.7 217.3,144.4 224.7,140.1 217.3,135.8 209.9,131.5 "/>
<line class="st4" x1="175.7" y1="140.1" x2="76.8" y2="140.1"/>
<polygon class="st5" points="172.1,140.1 172.1,148.7 164.7,144.4 157.3,140.1 164.7,135.8 172.1,131.5 "/>
<path class="st2" d="M212.7,157.4h-43.2c-1.2,0-2.2-1-2.2-2.2V125c0-1.2,1-2.2,2.2-2.2h43.2c1.2,0,2.2,1,2.2,2.2v30.2
	C214.8,156.4,213.9,157.4,212.7,157.4z"/>
<polyline class="st5" points="174.2,35.7 65.6,35.7 65.6,181.9 317.4,181.9 317.4,138.8 "/>
<path class="st2" d="M87.2,94.7H44c-1.2,0-2.2-1-2.2-2.2V62.4c0-1.2,1-2.2,2.2-2.2h43.2c1.2,0,2.2,1,2.2,2.2v30.2
	C89.4,93.7,88.4,94.7,87.2,94.7z"/>
<path class="st2" d="M212.7,53h-43.2c-1.2,0-2.2-1-2.2-2.2V20.6c0-1.2,1-2.2,2.2-2.2h43.2c1.2,0,2.2,1,2.2,2.2v30.2
	C214.8,52,213.9,53,212.7,53z"/>
<polygon class="st5" points="65.6,126.7 74.2,126.7 69.9,119.3 65.6,111.9 61.3,119.3 57.1,126.7 "/>
<polygon class="st5" points="65.6,153.7 57.1,153.7 61.3,161.1 65.6,168.5 69.9,161.1 74.2,153.7 "/>
<polygon class="st5" points="317.6,152.6 309,152.6 313.3,160 317.6,167.5 321.8,160 326.1,152.6 "/>
<path class="st2" d="M339,157.4h-43.2c-1.2,0-2.2-1-2.2-2.2V125c0-1.2,1-2.2,2.2-2.2H339c1.2,0,2.2,1,2.2,2.2v30.2
	C341.2,156.4,340.2,157.4,339,157.4z"/>
<path class="st2" d="M87.2,157.4H44c-1.2,0-2.2-1-2.2-2.2V125c0-1.2,1-2.2,2.2-2.2h43.2c1.2,0,2.2,1,2.2,2.2v30.2
	C89.4,156.4,88.4,157.4,87.2,157.4z"/>
<g>
	<path d="M57.1,78l-0.8-0.3c-0.3-0.1-0.5-0.3-0.6-0.4s-0.2-0.4-0.2-0.7c0-0.4,0.1-0.7,0.3-0.9s0.6-0.2,1.1-0.2c0.5,0,1,0.1,1.3,0.2
		l-0.1,0.6c-0.3,0-0.8,0-1.3,0c-0.2,0-0.4,0-0.5,0.1s-0.1,0.1-0.1,0.3c0,0.1,0,0.2,0.1,0.3s0.2,0.1,0.3,0.2l0.8,0.3
		c0.3,0.1,0.5,0.3,0.7,0.4c0.1,0.2,0.2,0.4,0.2,0.7c0,0.5-0.1,0.8-0.3,0.9c-0.2,0.2-0.6,0.2-1.2,0.2c-0.5,0-0.9-0.1-1.4-0.2l0.1-0.6
		c0.8,0,1.3,0,1.3,0c0.2,0,0.4,0,0.5-0.1c0.1,0,0.1-0.2,0.1-0.3c0-0.1,0-0.2-0.1-0.3C57.3,78.1,57.2,78.1,57.1,78z"/>
	<path d="M61.3,78.9l0.1,0.6c-0.3,0.1-0.7,0.2-1.1,0.2c-0.5,0-0.9-0.1-1.1-0.3c-0.2-0.2-0.3-0.6-0.3-1.2c0-0.6,0.1-1,0.3-1.2
		c0.2-0.2,0.6-0.3,1.1-0.3c0.4,0,0.8,0.1,1.1,0.2l-0.1,0.5c-0.4,0-0.7,0-0.8,0c-0.3,0-0.4,0.1-0.5,0.2s-0.1,0.3-0.1,0.6
		c0,0.3,0,0.5,0.1,0.6c0.1,0.1,0.3,0.2,0.5,0.2C60.8,78.9,61.1,78.9,61.3,78.9z"/>
	<path d="M62.8,75.5v1c0,0.2,0,0.4-0.1,0.6c0.4-0.3,0.8-0.5,1.2-0.5c0.3,0,0.5,0.1,0.6,0.2c0.1,0.1,0.2,0.3,0.2,0.6v2.2h-0.9v-1.9
		c0-0.1,0-0.2-0.1-0.3s-0.1-0.1-0.2-0.1c-0.2,0-0.5,0.1-0.8,0.3v2h-0.9v-4.1H62.8z"/>
	<path d="M66.8,76.6c0.5,0,0.9,0.1,1.1,0.3c0.2,0.2,0.3,0.6,0.3,1.2s-0.1,0.9-0.3,1.2c-0.2,0.2-0.6,0.3-1.1,0.3
		c-0.5,0-0.9-0.1-1.1-0.3c-0.2-0.2-0.3-0.6-0.3-1.2c0-0.6,0.1-1,0.3-1.2C65.9,76.7,66.2,76.6,66.8,76.6z M66.8,77.2
		c-0.2,0-0.4,0.1-0.5,0.2s-0.1,0.4-0.1,0.7c0,0.3,0,0.6,0.1,0.7c0.1,0.1,0.2,0.2,0.5,0.2c0.2,0,0.4-0.1,0.5-0.2
		c0.1-0.1,0.1-0.3,0.1-0.7c0-0.3,0-0.6-0.1-0.7S67,77.2,66.8,77.2z"/>
	<path d="M70.2,76.6c0.5,0,0.9,0.1,1.1,0.3c0.2,0.2,0.3,0.6,0.3,1.2s-0.1,0.9-0.3,1.2c-0.2,0.2-0.6,0.3-1.1,0.3
		c-0.5,0-0.9-0.1-1.1-0.3c-0.2-0.2-0.3-0.6-0.3-1.2c0-0.6,0.1-1,0.3-1.2C69.3,76.7,69.7,76.6,70.2,76.6z M70.2,77.2
		c-0.2,0-0.4,0.1-0.5,0.2s-0.1,0.4-0.1,0.7c0,0.3,0,0.6,0.1,0.7c0.1,0.1,0.2,0.2,0.5,0.2c0.2,0,0.4-0.1,0.5-0.2
		c0.1-0.1,0.1-0.3,0.1-0.7c0-0.3,0-0.6-0.1-0.7S70.4,77.2,70.2,77.2z"/>
	<path d="M73.2,75.5v3.2c0,0.2,0.1,0.3,0.3,0.3h0.2l0.1,0.6c-0.1,0.1-0.4,0.1-0.7,0.1c-0.3,0-0.5-0.1-0.6-0.2
		c-0.1-0.1-0.2-0.3-0.2-0.6v-3.4H73.2z"/>
</g>
<g>
	<path d="M57.6,138.2h-1.2v3.3h-0.9v-3.3h-1.2v-0.7h3.3V138.2z"/>
	<path d="M59.3,140.4h-1c0,0.2,0.1,0.4,0.2,0.4c0.1,0.1,0.3,0.1,0.5,0.1c0.3,0,0.7,0,1.1-0.1l0.1,0.5c-0.3,0.1-0.7,0.2-1.3,0.2
		c-0.5,0-0.9-0.1-1.2-0.4c-0.2-0.2-0.3-0.6-0.3-1.2c0-0.6,0.1-1,0.3-1.2c0.2-0.2,0.6-0.3,1.1-0.3c0.5,0,0.8,0.1,1,0.2
		s0.3,0.4,0.3,0.8c0,0.3-0.1,0.5-0.2,0.6C59.8,140.3,59.6,140.4,59.3,140.4z M58.3,139.9h0.8c0.1,0,0.2,0,0.2-0.1s0.1-0.1,0.1-0.2
		c0-0.1,0-0.2-0.1-0.3s-0.2-0.1-0.4-0.1c-0.2,0-0.4,0-0.5,0.1S58.3,139.6,58.3,139.9z"/>
	<path d="M60.8,139.3l-0.1-0.6c0.5-0.1,1-0.1,1.5-0.1c0.4,0,0.7,0.1,0.9,0.2s0.3,0.4,0.3,0.8v1.9h-0.7l-0.1-0.4
		c-0.3,0.3-0.6,0.5-1.1,0.5c-0.3,0-0.5-0.1-0.7-0.2c-0.2-0.1-0.3-0.3-0.3-0.6v-0.3c0-0.2,0.1-0.4,0.2-0.5s0.4-0.2,0.6-0.2h1v-0.1
		c0-0.1,0-0.2-0.1-0.3c-0.1-0.1-0.2-0.1-0.4-0.1C61.7,139.3,61.3,139.3,60.8,139.3z M61.5,140.6v0.1c0,0.2,0.1,0.3,0.3,0.3
		c0.2,0,0.5-0.1,0.7-0.3v-0.4h-0.8C61.6,140.3,61.5,140.4,61.5,140.6z"/>
	<path d="M66.4,140.9l0.1,0.6c-0.3,0.1-0.7,0.2-1.1,0.2c-0.5,0-0.9-0.1-1.1-0.3c-0.2-0.2-0.3-0.6-0.3-1.2c0-0.6,0.1-1,0.3-1.2
		c0.2-0.2,0.6-0.3,1.1-0.3c0.4,0,0.8,0.1,1.1,0.2l-0.1,0.5c-0.4,0-0.7,0-0.8,0c-0.3,0-0.4,0.1-0.5,0.2s-0.1,0.3-0.1,0.6
		c0,0.3,0,0.5,0.1,0.6c0.1,0.1,0.3,0.2,0.5,0.2C65.9,140.9,66.2,140.9,66.4,140.9z"/>
	<path d="M67.9,137.5v1c0,0.2,0,0.4-0.1,0.6c0.4-0.3,0.8-0.5,1.2-0.5c0.3,0,0.5,0.1,0.6,0.2c0.1,0.1,0.2,0.3,0.2,0.6v2.2H69v-1.9
		c0-0.1,0-0.2-0.1-0.3s-0.1-0.1-0.2-0.1c-0.2,0-0.5,0.1-0.8,0.3v2H67v-4.1H67.9z"/>
	<path d="M72.4,140.4h-1c0,0.2,0.1,0.4,0.2,0.4c0.1,0.1,0.3,0.1,0.5,0.1c0.3,0,0.7,0,1.1-0.1l0.1,0.5c-0.3,0.1-0.7,0.2-1.3,0.2
		c-0.5,0-0.9-0.1-1.2-0.4c-0.2-0.2-0.3-0.6-0.3-1.2c0-0.6,0.1-1,0.3-1.2c0.2-0.2,0.6-0.3,1.1-0.3c0.5,0,0.8,0.1,1,0.2
		s0.3,0.4,0.3,0.8c0,0.3-0.1,0.5-0.2,0.6C72.9,140.3,72.7,140.4,72.4,140.4z M71.3,139.9h0.8c0.1,0,0.2,0,0.2-0.1s0.1-0.1,0.1-0.2
		c0-0.1,0-0.2-0.1-0.3s-0.2-0.1-0.4-0.1c-0.2,0-0.4,0-0.5,0.1S71.3,139.6,71.3,139.9z"/>
	<path d="M75.9,138.6l-0.1,0.8h-0.2c-0.2,0-0.5,0.1-0.9,0.2v2h-0.9v-2.9h0.7l0.1,0.4c0.4-0.3,0.8-0.5,1.2-0.5H75.9z"/>
</g>
<g>
	<path d="M175.5,140.5h-1.4l-0.3,1.1H173l1.2-3.8c0-0.1,0.1-0.1,0.1-0.2s0.1-0.1,0.2-0.1h0.8c0.2,0,0.3,0.1,0.3,0.2l1.2,3.8h-0.9
		L175.5,140.5z M175.4,139.8l-0.3-1.2c0-0.2-0.1-0.3-0.1-0.4h-0.2c0,0,0,0.1,0,0.2s0,0.1,0,0.2l-0.3,1.2H175.4z"/>
	<path d="M177.8,138.7l0.1,0.4c0.1-0.1,0.3-0.3,0.5-0.4s0.4-0.1,0.6-0.1c0.7,0,1,0.5,1,1.5c0,0.6-0.1,0.9-0.3,1.2
		c-0.2,0.2-0.5,0.3-0.8,0.3c-0.4,0-0.7-0.1-1-0.3c0,0.2,0,0.4,0,0.6v0.7h-0.9v-4H177.8z M178,139.5v1.3c0.3,0.1,0.5,0.1,0.7,0.1
		c0.2,0,0.3-0.1,0.4-0.2c0.1-0.1,0.1-0.3,0.1-0.7c0-0.3,0-0.6-0.1-0.7s-0.2-0.2-0.4-0.2C178.5,139.3,178.2,139.4,178,139.5z"/>
	<path d="M181.3,138.7l0.1,0.4c0.1-0.1,0.3-0.3,0.5-0.4s0.4-0.1,0.6-0.1c0.7,0,1,0.5,1,1.5c0,0.6-0.1,0.9-0.3,1.2
		c-0.2,0.2-0.5,0.3-0.8,0.3c-0.4,0-0.7-0.1-1-0.3c0,0.2,0,0.4,0,0.6v0.7h-0.9v-4H181.3z M181.5,139.5v1.3c0.3,0.1,0.5,0.1,0.7,0.1
		c0.2,0,0.3-0.1,0.4-0.2c0.1-0.1,0.1-0.3,0.1-0.7c0-0.3,0-0.6-0.1-0.7s-0.2-0.2-0.4-0.2C182,139.3,181.8,139.4,181.5,139.5z"/>
	<path d="M185.5,138.6c0.5,0,0.9,0.1,1.1,0.3c0.2,0.2,0.3,0.6,0.3,1.2s-0.1,0.9-0.3,1.2c-0.2,0.2-0.6,0.3-1.1,0.3
		c-0.5,0-0.9-0.1-1.1-0.3c-0.2-0.2-0.3-0.6-0.3-1.2c0-0.6,0.1-1,0.3-1.2C184.6,138.7,184.9,138.6,185.5,138.6z M185.5,139.2
		c-0.2,0-0.4,0.1-0.5,0.2s-0.1,0.4-0.1,0.7c0,0.3,0,0.6,0.1,0.7c0.1,0.1,0.2,0.2,0.5,0.2c0.2,0,0.4-0.1,0.5-0.2
		c0.1-0.1,0.1-0.3,0.1-0.7c0-0.3,0-0.6-0.1-0.7S185.7,139.2,185.5,139.2z"/>
	<path d="M187.8,137.4h0.4c0.2,0,0.3,0.1,0.3,0.3v0.3c0,0.2-0.1,0.3-0.3,0.3h-0.4c-0.2,0-0.3-0.1-0.3-0.3v-0.3
		C187.6,137.5,187.6,137.4,187.8,137.4z M188.4,141.5h-0.9v-2.9h0.9V141.5z"/>
	<path d="M189.9,138.7l0.1,0.4c0.4-0.3,0.8-0.5,1.2-0.5c0.3,0,0.5,0.1,0.6,0.2c0.1,0.1,0.2,0.3,0.2,0.6v2.2h-0.9v-1.9
		c0-0.1,0-0.2-0.1-0.3s-0.1-0.1-0.2-0.1c-0.2,0-0.5,0.1-0.8,0.3v2h-0.9v-2.9H189.9z"/>
	<path d="M193.8,139.2v1.4c0,0.1,0,0.2,0.1,0.2s0.1,0.1,0.2,0.1h0.4l0.1,0.6c-0.2,0.1-0.5,0.1-0.8,0.1c-0.3,0-0.5-0.1-0.6-0.2
		c-0.1-0.1-0.2-0.3-0.2-0.6v-1.5h-0.5v-0.5l0.5,0v-0.8h0.9v0.8h0.8v0.6H193.8z"/>
	<path d="M195.8,138.7l0.1,0.4c0.4-0.3,0.7-0.5,1.1-0.5c0.4,0,0.6,0.2,0.7,0.5c0.3-0.3,0.7-0.5,1.1-0.5c0.3,0,0.5,0.1,0.6,0.2
		s0.2,0.3,0.2,0.6v2.2h-0.9v-1.9c0-0.1,0-0.2-0.1-0.3s-0.1-0.1-0.2-0.1c-0.1,0-0.2,0-0.3,0.1s-0.2,0.1-0.4,0.2v2h-0.8v-1.9
		c0-0.1,0-0.2-0.1-0.3s-0.1-0.1-0.2-0.1c-0.2,0-0.4,0.1-0.6,0.3v2h-0.9v-2.9H195.8z"/>
	<path d="M202.1,140.4h-1c0,0.2,0.1,0.4,0.2,0.4c0.1,0.1,0.3,0.1,0.5,0.1c0.3,0,0.7,0,1.1-0.1l0.1,0.5c-0.3,0.1-0.7,0.2-1.3,0.2
		c-0.5,0-0.9-0.1-1.2-0.4c-0.2-0.2-0.3-0.6-0.3-1.2c0-0.6,0.1-1,0.3-1.2c0.2-0.2,0.6-0.3,1.1-0.3c0.5,0,0.8,0.1,1,0.2
		s0.3,0.4,0.3,0.8c0,0.3-0.1,0.5-0.2,0.6C202.6,140.3,202.4,140.4,202.1,140.4z M201,139.9h0.8c0.1,0,0.2,0,0.2-0.1s0.1-0.1,0.1-0.2
		c0-0.1,0-0.2-0.1-0.3s-0.2-0.1-0.4-0.1c-0.2,0-0.4,0-0.5,0.1S201,139.6,201,139.9z"/>
	<path d="M204.2,138.7l0.1,0.4c0.4-0.3,0.8-0.5,1.2-0.5c0.3,0,0.5,0.1,0.6,0.2c0.1,0.1,0.2,0.3,0.2,0.6v2.2h-0.9v-1.9
		c0-0.1,0-0.2-0.1-0.3s-0.1-0.1-0.2-0.1c-0.2,0-0.5,0.1-0.8,0.3v2h-0.9v-2.9H204.2z"/>
	<path d="M208.1,139.2v1.4c0,0.1,0,0.2,0.1,0.2s0.1,0.1,0.2,0.1h0.4l0.1,0.6c-0.2,0.1-0.5,0.1-0.8,0.1c-0.3,0-0.5-0.1-0.6-0.2
		c-0.1-0.1-0.2-0.3-0.2-0.6v-1.5h-0.5v-0.5l0.5,0v-0.8h0.9v0.8h0.8v0.6H208.1z"/>
</g>
<g>
	<path d="M307.8,140l-0.8-0.3c-0.3-0.1-0.5-0.3-0.6-0.4s-0.2-0.4-0.2-0.7c0-0.4,0.1-0.7,0.3-0.9s0.6-0.2,1.1-0.2
		c0.5,0,1,0.1,1.3,0.2l-0.1,0.6c-0.3,0-0.8,0-1.3,0c-0.2,0-0.4,0-0.5,0.1s-0.1,0.1-0.1,0.3c0,0.1,0,0.2,0.1,0.3s0.2,0.1,0.3,0.2
		l0.8,0.3c0.3,0.1,0.5,0.3,0.7,0.4c0.1,0.2,0.2,0.4,0.2,0.7c0,0.5-0.1,0.8-0.3,0.9c-0.2,0.2-0.6,0.2-1.2,0.2c-0.5,0-0.9-0.1-1.4-0.2
		l0.1-0.6c0.8,0,1.3,0,1.3,0c0.2,0,0.4,0,0.5-0.1c0.1,0,0.1-0.2,0.1-0.3c0-0.1,0-0.2-0.1-0.3C308.1,140.1,308,140.1,307.8,140z"/>
	<path d="M310.8,139.2v1.4c0,0.1,0,0.2,0.1,0.2s0.1,0.1,0.2,0.1h0.4l0.1,0.6c-0.2,0.1-0.5,0.1-0.8,0.1c-0.3,0-0.5-0.1-0.6-0.2
		c-0.1-0.1-0.2-0.3-0.2-0.6v-1.5h-0.5v-0.5l0.5,0v-0.8h0.9v0.8h0.8v0.6H310.8z"/>
	<path d="M314.8,138.7v2.9h-0.7l-0.1-0.4c-0.4,0.3-0.8,0.5-1.2,0.5c-0.5,0-0.8-0.3-0.8-0.8v-2.2h0.9v1.9c0,0.1,0,0.2,0.1,0.3
		s0.1,0.1,0.2,0.1c0.2,0,0.4-0.1,0.7-0.2v-2H314.8z"/>
	<path d="M318.3,137.5v4.1h-0.7l-0.1-0.4c-0.3,0.3-0.6,0.5-1.1,0.5c-0.4,0-0.6-0.1-0.8-0.4c-0.2-0.3-0.2-0.6-0.2-1.1
		c0-0.6,0.1-0.9,0.3-1.2c0.2-0.2,0.5-0.3,0.8-0.3c0.4,0,0.7,0.1,0.9,0.3c0-0.2,0-0.4,0-0.6v-0.8H318.3z M317.4,140.7v-1.3
		c-0.3-0.1-0.5-0.1-0.6-0.1c-0.2,0-0.3,0.1-0.4,0.2s-0.1,0.3-0.1,0.7c0,0.3,0,0.6,0.1,0.7c0.1,0.1,0.2,0.2,0.4,0.2
		c0.1,0,0.2,0,0.3,0C317.2,140.8,317.3,140.8,317.4,140.7z"/>
	<path d="M320.8,140.4h-1c0,0.2,0.1,0.4,0.2,0.4c0.1,0.1,0.3,0.1,0.5,0.1c0.3,0,0.7,0,1.1-0.1l0.1,0.5c-0.3,0.1-0.7,0.2-1.3,0.2
		c-0.5,0-0.9-0.1-1.2-0.4c-0.2-0.2-0.3-0.6-0.3-1.2c0-0.6,0.1-1,0.3-1.2c0.2-0.2,0.6-0.3,1.1-0.3c0.5,0,0.8,0.1,1,0.2
		s0.3,0.4,0.3,0.8c0,0.3-0.1,0.5-0.2,0.6C321.4,140.3,321.2,140.4,320.8,140.4z M319.8,139.9h0.8c0.1,0,0.2,0,0.2-0.1
		s0.1-0.1,0.1-0.2c0-0.1,0-0.2-0.1-0.3s-0.2-0.1-0.4-0.1c-0.2,0-0.4,0-0.5,0.1S319.8,139.6,319.8,139.9z"/>
	<path d="M323,138.7l0.1,0.4c0.4-0.3,0.8-0.5,1.2-0.5c0.3,0,0.5,0.1,0.6,0.2c0.1,0.1,0.2,0.3,0.2,0.6v2.2h-0.9v-1.9
		c0-0.1,0-0.2-0.1-0.3s-0.1-0.1-0.2-0.1c-0.2,0-0.5,0.1-0.8,0.3v2h-0.9v-2.9H323z"/>
	<path d="M326.9,139.2v1.4c0,0.1,0,0.2,0.1,0.2s0.1,0.1,0.2,0.1h0.4l0.1,0.6c-0.2,0.1-0.5,0.1-0.8,0.1c-0.3,0-0.5-0.1-0.6-0.2
		c-0.1-0.1-0.2-0.3-0.2-0.6v-1.5h-0.5v-0.5l0.5,0v-0.8h0.9v0.8h0.8v0.6H326.9z"/>
</g>
<g>
	<path d="M175.8,33.5v4h-0.9v-1.8h-1.4v1.8h-0.9v-4h0.9v1.5h1.4v-1.5H175.8z"/>
	<path d="M178.4,36.4h-1c0,0.2,0.1,0.4,0.2,0.4c0.1,0.1,0.3,0.1,0.5,0.1c0.3,0,0.7,0,1.1-0.1l0.1,0.5c-0.3,0.1-0.7,0.2-1.3,0.2
		c-0.5,0-0.9-0.1-1.2-0.4c-0.2-0.2-0.3-0.6-0.3-1.2c0-0.6,0.1-1,0.3-1.2c0.2-0.2,0.6-0.3,1.1-0.3c0.5,0,0.8,0.1,1,0.2
		s0.3,0.4,0.3,0.8c0,0.3-0.1,0.5-0.2,0.6C178.9,36.3,178.7,36.4,178.4,36.4z M177.4,35.9h0.8c0.1,0,0.2,0,0.2-0.1s0.1-0.1,0.1-0.2
		c0-0.1,0-0.2-0.1-0.3s-0.2-0.1-0.4-0.1c-0.2,0-0.4,0-0.5,0.1S177.4,35.6,177.4,35.9z"/>
	<path d="M179.9,35.3l-0.1-0.6c0.5-0.1,1-0.1,1.5-0.1c0.4,0,0.7,0.1,0.9,0.2s0.3,0.4,0.3,0.8v1.9h-0.7l-0.1-0.4
		c-0.3,0.3-0.6,0.5-1.1,0.5c-0.3,0-0.5-0.1-0.7-0.2c-0.2-0.1-0.3-0.3-0.3-0.6v-0.3c0-0.2,0.1-0.4,0.2-0.5s0.4-0.2,0.6-0.2h1v-0.1
		c0-0.1,0-0.2-0.1-0.3c-0.1-0.1-0.2-0.1-0.4-0.1C180.8,35.3,180.4,35.3,179.9,35.3z M180.6,36.6v0.1c0,0.2,0.1,0.3,0.3,0.3
		c0.2,0,0.5-0.1,0.7-0.3v-0.4h-0.8C180.7,36.3,180.6,36.4,180.6,36.6z"/>
	<path d="M185.9,33.5v4.1h-0.7l-0.1-0.4c-0.3,0.3-0.6,0.5-1.1,0.5c-0.4,0-0.6-0.1-0.8-0.4c-0.2-0.3-0.2-0.6-0.2-1.1
		c0-0.6,0.1-0.9,0.3-1.2c0.2-0.2,0.5-0.3,0.8-0.3c0.4,0,0.7,0.1,0.9,0.3c0-0.2,0-0.4,0-0.6v-0.8H185.9z M185.1,36.7v-1.3
		c-0.3-0.1-0.5-0.1-0.6-0.1c-0.2,0-0.3,0.1-0.4,0.2s-0.1,0.3-0.1,0.7c0,0.3,0,0.6,0.1,0.7c0.1,0.1,0.2,0.2,0.4,0.2
		c0.1,0,0.2,0,0.3,0C184.8,36.8,184.9,36.8,185.1,36.7z"/>
	<path d="M188.9,35.2v1.4c0,0.1,0,0.2,0.1,0.2s0.1,0.1,0.2,0.1h0.4l0.1,0.6c-0.2,0.1-0.5,0.1-0.8,0.1c-0.3,0-0.5-0.1-0.6-0.2
		c-0.1-0.1-0.2-0.3-0.2-0.6v-1.5h-0.5v-0.5l0.5,0v-0.8h0.9v0.8h0.8v0.6H188.9z"/>
	<path d="M192,36.4h-1c0,0.2,0.1,0.4,0.2,0.4c0.1,0.1,0.3,0.1,0.5,0.1c0.3,0,0.7,0,1.1-0.1l0.1,0.5c-0.3,0.1-0.7,0.2-1.3,0.2
		c-0.5,0-0.9-0.1-1.2-0.4c-0.2-0.2-0.3-0.6-0.3-1.2c0-0.6,0.1-1,0.3-1.2c0.2-0.2,0.6-0.3,1.1-0.3c0.5,0,0.8,0.1,1,0.2
		s0.3,0.4,0.3,0.8c0,0.3-0.1,0.5-0.2,0.6C192.6,36.3,192.4,36.4,192,36.4z M191,35.9h0.8c0.1,0,0.2,0,0.2-0.1s0.1-0.1,0.1-0.2
		c0-0.1,0-0.2-0.1-0.3s-0.2-0.1-0.4-0.1c-0.2,0-0.4,0-0.5,0.1S191,35.6,191,35.9z"/>
	<path d="M193.6,35.3l-0.1-0.6c0.5-0.1,1-0.1,1.5-0.1c0.4,0,0.7,0.1,0.9,0.2s0.3,0.4,0.3,0.8v1.9h-0.7l-0.1-0.4
		c-0.3,0.3-0.6,0.5-1.1,0.5c-0.3,0-0.5-0.1-0.7-0.2c-0.2-0.1-0.3-0.3-0.3-0.6v-0.3c0-0.2,0.1-0.4,0.2-0.5s0.4-0.2,0.6-0.2h1v-0.1
		c0-0.1,0-0.2-0.1-0.3c-0.1-0.1-0.2-0.1-0.4-0.1C194.5,35.3,194.1,35.3,193.6,35.3z M194.2,36.6v0.1c0,0.2,0.1,0.3,0.3,0.3
		c0.2,0,0.5-0.1,0.7-0.3v-0.4h-0.8C194.3,36.3,194.2,36.4,194.2,36.6z"/>
	<path d="M199.2,36.9l0.1,0.6c-0.3,0.1-0.7,0.2-1.1,0.2c-0.5,0-0.9-0.1-1.1-0.3c-0.2-0.2-0.3-0.6-0.3-1.2c0-0.6,0.1-1,0.3-1.2
		c0.2-0.2,0.6-0.3,1.1-0.3c0.4,0,0.8,0.1,1.1,0.2l-0.1,0.5c-0.4,0-0.7,0-0.8,0c-0.3,0-0.4,0.1-0.5,0.2s-0.1,0.3-0.1,0.6
		c0,0.3,0,0.5,0.1,0.6c0.1,0.1,0.3,0.2,0.5,0.2C198.6,36.9,198.9,36.9,199.2,36.9z"/>
	<path d="M200.6,33.5v1c0,0.2,0,0.4-0.1,0.6c0.4-0.3,0.8-0.5,1.2-0.5c0.3,0,0.5,0.1,0.6,0.2c0.1,0.1,0.2,0.3,0.2,0.6v2.2h-0.9v-1.9
		c0-0.1,0-0.2-0.1-0.3s-0.1-0.1-0.2-0.1c-0.2,0-0.5,0.1-0.8,0.3v2h-0.9v-4.1H200.6z"/>
	<path d="M205.1,36.4h-1c0,0.2,0.1,0.4,0.2,0.4c0.1,0.1,0.3,0.1,0.5,0.1c0.3,0,0.7,0,1.1-0.1l0.1,0.5c-0.3,0.1-0.7,0.2-1.3,0.2
		c-0.5,0-0.9-0.1-1.2-0.4c-0.2-0.2-0.3-0.6-0.3-1.2c0-0.6,0.1-1,0.3-1.2c0.2-0.2,0.6-0.3,1.1-0.3c0.5,0,0.8,0.1,1,0.2
		s0.3,0.4,0.3,0.8c0,0.3-0.1,0.5-0.2,0.6C205.6,36.3,205.4,36.4,205.1,36.4z M204.1,35.9h0.8c0.1,0,0.2,0,0.2-0.1s0.1-0.1,0.1-0.2
		c0-0.1,0-0.2-0.1-0.3s-0.2-0.1-0.4-0.1c-0.2,0-0.4,0-0.5,0.1S204.1,35.6,204.1,35.9z"/>
	<path d="M208.6,34.6l-0.1,0.8h-0.2c-0.2,0-0.5,0.1-0.9,0.2v2h-0.9v-2.9h0.7l0.1,0.4c0.4-0.3,0.8-0.5,1.2-0.5H208.6z"/>
</g>
</svg>
