<?xml version="1.0" encoding="UTF-8"?><svg id="a" xmlns="http://www.w3.org/2000/svg" width="800" height="600" xmlns:xlink="http://www.w3.org/1999/xlink" viewBox="0 0 800 600"><defs><style>.c{fill:url(#b);}.d{stroke:#333;stroke-width:3px;}.d,.e{stroke-linecap:round;}.d,.e,.f{fill:none;stroke-miterlimit:10;}.g{fill:#f9b443;}.h{fill:#eeefed;}.i{fill:#f7931e;}.j{fill:#fff;}.k{fill:#e72b78;}.l{fill:#6ba1ab;}.m{fill:#df801e;}.n{fill:#0f8294;}.e{stroke:#f7931e;}.f{stroke:#e72b78;}</style><linearGradient id="b" x1="400" y1="23.7" x2="400" y2="406.4" gradientTransform="matrix(1, 0, 0, 1, 0, 0)" gradientUnits="userSpaceOnUse"><stop offset="0" stop-color="#fff"/><stop offset=".6" stop-color="#eeefed"/></linearGradient></defs><g><rect class="h" x="17.5" y="17.5" width="765" height="565" rx="22.9" ry="22.9"/><polyline class="c" points="381.2 404.5 393.1 404.5 393.1 394.5 381.2 394.5 381.2 380.7 393.1 380.7 393.1 358.8 383.1 358.8 383.1 370.7 369.3 370.7 369.3 358.8 359.3 358.8 359.3 380.7 371.2 380.7 371.2 394.5 345.5 394.5 345.5 382.6 335.5 382.6 335.5 394.5 309.8 394.5 309.8 380.7 321.7 380.7 321.7 370.7 309.8 370.7 309.8 356.9 335.5 356.9 335.5 368.8 345.5 368.8 345.5 335 335.5 335 335.5 346.9 309.8 346.9 309.8 333.1 321.7 333.1 321.7 323.1 309.8 323.1 309.8 309.3 335.5 309.3 335.5 321.2 345.5 321.2 345.5 309.3 371.2 309.3 371.2 323.1 359.3 323.1 359.3 345 369.3 345 369.3 333.1 383.1 333.1 383.1 345 393.1 345 393.1 323.1 381.2 323.1 381.2 309.3 393.1 309.3 393.1 287.4 383.1 287.4 383.1 299.3 357.4 299.3 357.4 285.5 369.3 285.5 369.3 275.5 357.4 275.5 357.4 261.7 383.1 261.7 383.1 273.6 393.1 273.6 393.1 251.7 381.2 251.7 381.2 237.9 393.1 237.9 393.1 216 383.1 216 383.1 227.9 369.3 227.9 369.3 216 359.3 216 359.3 237.9 371.2 237.9 371.2 251.7 333.6 251.7 333.6 237.9 345.5 237.9 345.5 216 335.5 216 335.5 227.9 321.7 227.9 321.7 216 311.7 216 311.7 237.9 323.6 237.9 323.6 251.7 311.7 251.7 311.7 273.6 321.7 273.6 321.7 261.7 347.4 261.7 347.4 275.5 335.5 275.5 335.5 285.5 347.4 285.5 347.4 299.3 321.7 299.3 321.7 287.4 311.7 287.4 311.7 299.3 297.9 299.3 297.9 287.4 287.9 287.4 287.9 299.3 262.2 299.3 262.2 285.5 274.1 285.5 274.1 275.5 262.2 275.5 262.2 261.7 287.9 261.7 287.9 273.6 297.9 273.6 297.9 251.7 286 251.7 286 237.9 297.9 237.9 297.9 216 287.9 216 287.9 227.9 274.1 227.9 274.1 216 264.1 216 264.1 237.9 276 237.9 276 251.7 238.4 251.7 238.4 237.9 250.3 237.9 250.3 216 240.3 216 240.3 227.9 226.5 227.9 226.5 216 216.5 216 216.5 237.9 228.4 237.9 228.4 251.7 216.5 251.7 216.5 273.6 226.5 273.6 226.5 261.7 252.2 261.7 252.2 275.5 240.3 275.5 240.3 285.5 252.2 285.5 252.2 299.3 226.5 299.3 226.5 287.4 216.5 287.4 216.5 309.3 228.4 309.3 228.4 323.1 216.5 323.1 216.5 345 226.5 345 226.5 333.1 240.3 333.1 240.3 345 250.3 345 250.3 323.1 238.4 323.1 238.4 309.3 264.1 309.3 264.1 321.2 274.1 321.2 274.1 309.3 299.8 309.3 299.8 323.1 287.9 323.1 287.9 333.1 299.8 333.1 299.8 346.9 274.1 346.9 274.1 335 264.1 335 264.1 368.8 274.1 368.8 274.1 356.9 299.8 356.9 299.8 370.7 287.9 370.7 287.9 380.7 299.8 380.7 299.8 394.5 274.1 394.5 274.1 382.6 264.1 382.6 264.1 394.5 238.4 394.5 238.4 380.7 250.3 380.7 250.3 358.8 240.3 358.8 240.3 370.7 226.5 370.7 226.5 358.8 216.5 358.8 216.5 380.7 228.4 380.7 228.4 394.5 202.7 394.5 202.7 382.6 192.7 382.6 192.7 394.5 167 394.5 167 380.7 178.9 380.7 178.9 370.7 167 370.7 167 356.9 192.7 356.9 192.7 368.8 202.7 368.8 202.7 346.9 190.8 346.9 190.8 333.1 202.7 333.1 202.7 311.2 192.7 311.2 192.7 323.1 178.9 323.1 178.9 311.2 168.9 311.2 168.9 333.1 180.8 333.1 180.8 346.9 143.2 346.9 143.2 333.1 155.1 333.1 155.1 311.2 145.1 311.2 145.1 323.1 131.3 323.1 131.3 311.2 121.3 311.2 121.3 333.1 133.2 333.1 133.2 346.9 121.3 346.9 121.3 368.8 131.3 368.8 131.3 356.9 157 356.9 157 370.7 145.1 370.7 145.1 380.7 157 380.7 157 394.5 131.3 394.5 131.3 382.6 121.3 382.6 121.3 394.5 95.6 394.5 95.6 380.7 107.5 380.7 107.5 358.8 97.5 358.8 97.5 370.7 83.7 370.7 83.7 358.8 73.7 358.8 73.7 380.7 85.6 380.7 85.6 394.5 59.9 394.5 59.9 382.6 49.9 382.6 49.9 394.5 24.2 394.5 24.2 380.7 36.1 380.7 36.1 370.7 24.2 370.7 24.2 356.9 49.9 356.9 49.9 368.8 59.9 368.8 59.9 335 49.9 335 49.9 346.9 24.2 346.9 24.2 333.1 36.1 333.1 36.1 323.1 24.2 323.1 24.2 309.3 49.9 309.3 49.9 321.2 59.9 321.2 59.9 309.3 85.6 309.3 85.6 323.1 73.7 323.1 73.7 345 83.7 345 83.7 333.1 97.5 333.1 97.5 345 107.5 345 107.5 323.1 95.6 323.1 95.6 309.3 107.5 309.3 107.5 299.3 95.6 299.3 95.6 285.5 107.5 285.5 107.5 263.6 97.5 263.6 97.5 275.5 83.7 275.5 83.7 263.6 73.7 263.6 73.7 285.5 85.6 285.5 85.6 299.3 59.9 299.3 59.9 287.4 49.9 287.4 49.9 299.3 24.2 299.3 24.2 285.5 36.1 285.5 36.1 275.5 24.2 275.5 24.2 261.7 49.9 261.7 49.9 273.6 59.9 273.6 59.9 239.8 49.9 239.8 49.9 251.7 24.2 251.7 24.2 237.9 36.1 237.9 36.1 227.9 24.2 227.9 24.2 214.1 49.9 214.1 49.9 226 59.9 226 59.9 214.1 85.6 214.1 85.6 227.9 73.7 227.9 73.7 249.8 83.7 249.8 83.7 237.9 97.5 237.9 97.5 249.8 107.5 249.8 107.5 227.9 95.6 227.9 95.6 214.1 121.3 214.1 121.3 226 131.3 226 131.3 214.1 157 214.1 157 227.9 145.1 227.9 145.1 237.9 157 237.9 157 251.7 131.3 251.7 131.3 239.8 121.3 239.8 121.3 261.7 133.2 261.7 133.2 275.5 121.3 275.5 121.3 297.4 131.3 297.4 131.3 285.5 145.1 285.5 145.1 297.4 155.1 297.4 155.1 275.5 143.2 275.5 143.2 261.7 180.8 261.7 180.8 275.5 168.9 275.5 168.9 297.4 178.9 297.4 178.9 285.5 192.7 285.5 192.7 297.4 202.7 297.4 202.7 275.5 190.8 275.5 190.8 261.7 202.7 261.7 202.7 239.8 192.7 239.8 192.7 251.7 167 251.7 167 237.9 178.9 237.9 178.9 227.9 167 227.9 167 214.1 192.7 214.1 192.7 226 202.7 226 202.7 192.2 192.7 192.2 192.7 204.1 167 204.1 167 190.3 178.9 190.3 178.9 180.3 167 180.3 167 166.5 192.7 166.5 192.7 178.4 202.7 178.4 202.7 156.5 190.8 156.5 190.8 142.7 202.7 142.7 202.7 120.8 192.7 120.8 192.7 132.7 178.9 132.7 178.9 120.8 168.9 120.8 168.9 142.7 180.8 142.7 180.8 156.5 143.2 156.5 143.2 142.7 155.1 142.7 155.1 120.8 145.1 120.8 145.1 132.7 131.3 132.7 131.3 120.8 121.3 120.8 121.3 142.7 133.2 142.7 133.2 156.5 121.3 156.5 121.3 178.4 131.3 178.4 131.3 166.5 157 166.5 157 180.3 145.1 180.3 145.1 190.3 157 190.3 157 204.1 131.3 204.1 131.3 192.2 121.3 192.2 121.3 204.1 95.6 204.1 95.6 190.3 107.5 190.3 107.5 168.4 97.5 168.4 97.5 180.3 83.7 180.3 83.7 168.4 73.7 168.4 73.7 190.3 85.6 190.3 85.6 204.1 59.9 204.1 59.9 192.2 49.9 192.2 49.9 204.1 24.2 204.1 24.2 190.3 36.1 190.3 36.1 180.3 24.2 180.3 24.2 166.5 49.9 166.5 49.9 178.4 59.9 178.4 59.9 144.6 49.9 144.6 49.9 156.5 24.2 156.5 24.2 142.7 36.1 142.7 36.1 132.7 24.2 132.7 24.2 118.9 49.9 118.9 49.9 130.8 59.9 130.8 59.9 118.9 85.6 118.9 85.6 132.7 73.7 132.7 73.7 154.6 83.7 154.6 83.7 142.7 97.5 142.7 97.5 154.6 107.5 154.6 107.5 132.7 95.6 132.7 95.6 118.9 107.5 118.9 107.5 108.9 95.6 108.9 95.6 95.1 107.5 95.1 107.5 73.2 97.5 73.2 97.5 85.1 83.7 85.1 83.7 73.2 73.7 73.2 73.7 95.1 85.6 95.1 85.6 108.9 59.9 108.9 59.9 97 49.9 97 49.9 108.9 24.2 108.9 24.2 95.1 36.1 95.1 36.1 85.1 24.2 85.1 24.2 71.3 49.9 71.3 49.9 83.2 59.9 83.2 59.9 49.4 49.9 49.4 49.9 61.3 24.2 61.3 24.2 47.5 36.1 47.5 36.1 37.5 24.2 37.5 24.2 23.7 49.9 23.7 49.9 35.6 59.9 35.6 59.9 23.7 85.6 23.7 85.6 37.5 73.7 37.5 73.7 59.4 83.7 59.4 83.7 47.5 97.5 47.5 97.5 59.4 107.5 59.4 107.5 37.5 95.6 37.5 95.6 23.7 121.3 23.7 121.3 35.6 131.3 35.6 131.3 23.7 157 23.7 157 37.5 145.1 37.5 145.1 47.5 157 47.5 157 61.3 131.3 61.3 131.3 49.4 121.3 49.4 121.3 71.3 133.2 71.3 133.2 85.1 121.3 85.1 121.3 107 131.3 107 131.3 95.1 145.1 95.1 145.1 107 155.1 107 155.1 85.1 143.2 85.1 143.2 71.3 180.8 71.3 180.8 85.1 168.9 85.1 168.9 107 178.9 107 178.9 95.1 192.7 95.1 192.7 107 202.7 107 202.7 85.1 190.8 85.1 190.8 71.3 202.7 71.3 202.7 49.4 192.7 49.4 192.7 61.3 167 61.3 167 47.5 178.9 47.5 178.9 37.5 167 37.5 167 23.7 192.7 23.7 192.7 35.6 202.7 35.6 202.7 23.7 228.4 23.7 228.4 37.5 216.5 37.5 216.5 59.4 226.5 59.4 226.5 47.5 240.3 47.5 240.3 59.4 250.3 59.4 250.3 37.5 238.4 37.5 238.4 23.7 264.1 23.7 264.1 35.6 274.1 35.6 274.1 23.7 299.8 23.7 299.8 37.5 287.9 37.5 287.9 47.5 299.8 47.5 299.8 61.3 274.1 61.3 274.1 49.4 264.1 49.4 264.1 83.2 274.1 83.2 274.1 71.3 299.8 71.3 299.8 85.1 287.9 85.1 287.9 95.1 299.8 95.1 299.8 108.9 274.1 108.9 274.1 97 264.1 97 264.1 108.9 238.4 108.9 238.4 95.1 250.3 95.1 250.3 73.2 240.3 73.2 240.3 85.1 226.5 85.1 226.5 73.2 216.5 73.2 216.5 95.1 228.4 95.1 228.4 108.9 216.5 108.9 216.5 130.8 226.5 130.8 226.5 118.9 252.2 118.9 252.2 132.7 240.3 132.7 240.3 142.7 252.2 142.7 252.2 156.5 226.5 156.5 226.5 144.6 216.5 144.6 216.5 166.5 228.4 166.5 228.4 180.3 216.5 180.3 216.5 202.2 226.5 202.2 226.5 190.3 240.3 190.3 240.3 202.2 250.3 202.2 250.3 180.3 238.4 180.3 238.4 166.5 276 166.5 276 180.3 264.1 180.3 264.1 202.2 274.1 202.2 274.1 190.3 287.9 190.3 287.9 202.2 297.9 202.2 297.9 180.3 286 180.3 286 166.5 297.9 166.5 297.9 144.6 287.9 144.6 287.9 156.5 262.2 156.5 262.2 142.7 274.1 142.7 274.1 132.7 262.2 132.7 262.2 118.9 287.9 118.9 287.9 130.8 297.9 130.8 297.9 118.9 311.7 118.9 311.7 130.8 321.7 130.8 321.7 118.9 347.4 118.9 347.4 132.7 335.5 132.7 335.5 142.7 347.4 142.7 347.4 156.5 321.7 156.5 321.7 144.6 311.7 144.6 311.7 166.5 323.6 166.5 323.6 180.3 311.7 180.3 311.7 202.2 321.7 202.2 321.7 190.3 335.5 190.3 335.5 202.2 345.5 202.2 345.5 180.3 333.6 180.3 333.6 166.5 371.2 166.5 371.2 180.3 359.3 180.3 359.3 202.2 369.3 202.2 369.3 190.3 383.1 190.3 383.1 202.2 393.1 202.2 393.1 180.3 381.2 180.3 381.2 166.5 393.1 166.5 393.1 144.6 383.1 144.6 383.1 156.5 357.4 156.5 357.4 142.7 369.3 142.7 369.3 132.7 357.4 132.7 357.4 118.9 383.1 118.9 383.1 130.8 393.1 130.8 393.1 108.9 381.2 108.9 381.2 95.1 393.1 95.1 393.1 73.2 383.1 73.2 383.1 85.1 369.3 85.1 369.3 73.2 359.3 73.2 359.3 95.1 371.2 95.1 371.2 108.9 345.5 108.9 345.5 97 335.5 97 335.5 108.9 309.8 108.9 309.8 95.1 321.7 95.1 321.7 85.1 309.8 85.1 309.8 71.3 335.5 71.3 335.5 83.2 345.5 83.2 345.5 49.4 335.5 49.4 335.5 61.3 309.8 61.3 309.8 47.5 321.7 47.5 321.7 37.5 309.8 37.5 309.8 23.7 335.5 23.7 335.5 35.6 345.5 35.6 345.5 23.7 371.2 23.7 371.2 37.5 359.3 37.5 359.3 59.4 369.3 59.4 369.3 47.5 383.1 47.5 383.1 59.4 393.1 59.4 393.1 37.5 381.2 37.5 381.2 23.7 406.9 23.7 406.9 35.6 416.9 35.6 416.9 23.7 442.6 23.7 442.6 37.5 430.7 37.5 430.7 47.5 442.6 47.5 442.6 61.3 416.9 61.3 416.9 49.4 406.9 49.4 406.9 71.3 418.8 71.3 418.8 85.1 406.9 85.1 406.9 107 416.9 107 416.9 95.1 430.7 95.1 430.7 107 440.7 107 440.7 85.1 428.8 85.1 428.8 71.3 466.4 71.3 466.4 85.1 454.5 85.1 454.5 107 464.5 107 464.5 95.1 478.3 95.1 478.3 107 488.3 107 488.3 85.1 476.4 85.1 476.4 71.3 488.3 71.3 488.3 49.4 478.3 49.4 478.3 61.3 452.6 61.3 452.6 47.5 464.5 47.5 464.5 37.5 452.6 37.5 452.6 23.7 478.3 23.7 478.3 35.6 488.3 35.6 488.3 23.7 514 23.7 514 37.5 502.1 37.5 502.1 59.4 512.1 59.4 512.1 47.5 525.9 47.5 525.9 59.4 535.9 59.4 535.9 37.5 524 37.5 524 23.7 549.7 23.7 549.7 35.6 559.7 35.6 559.7 23.7 585.4 23.7 585.4 37.5 573.5 37.5 573.5 47.5 585.4 47.5 585.4 61.3 559.7 61.3 559.7 49.4 549.7 49.4 549.7 83.2 559.7 83.2 559.7 71.3 585.4 71.3 585.4 85.1 573.5 85.1 573.5 95.1 585.4 95.1 585.4 108.9 559.7 108.9 559.7 97 549.7 97 549.7 108.9 524 108.9 524 95.1 535.9 95.1 535.9 73.2 525.9 73.2 525.9 85.1 512.1 85.1 512.1 73.2 502.1 73.2 502.1 95.1 514 95.1 514 108.9 502.1 108.9 502.1 118.9 514 118.9 514 132.7 502.1 132.7 502.1 154.6 512.1 154.6 512.1 142.7 525.9 142.7 525.9 154.6 535.9 154.6 535.9 132.7 524 132.7 524 118.9 549.7 118.9 549.7 130.8 559.7 130.8 559.7 118.9 585.4 118.9 585.4 132.7 573.5 132.7 573.5 142.7 585.4 142.7 585.4 156.5 559.7 156.5 559.7 144.6 549.7 144.6 549.7 178.4 559.7 178.4 559.7 166.5 585.4 166.5 585.4 180.3 573.5 180.3 573.5 190.3 585.4 190.3 585.4 204.1 559.7 204.1 559.7 192.2 549.7 192.2 549.7 204.1 524 204.1 524 190.3 535.9 190.3 535.9 168.4 525.9 168.4 525.9 180.3 512.1 180.3 512.1 168.4 502.1 168.4 502.1 190.3 514 190.3 514 204.1 488.3 204.1 488.3 192.2 478.3 192.2 478.3 204.1 452.6 204.1 452.6 190.3 464.5 190.3 464.5 180.3 452.6 180.3 452.6 166.5 478.3 166.5 478.3 178.4 488.3 178.4 488.3 156.5 476.4 156.5 476.4 142.7 488.3 142.7 488.3 120.8 478.3 120.8 478.3 132.7 464.5 132.7 464.5 120.8 454.5 120.8 454.5 142.7 466.4 142.7 466.4 156.5 428.8 156.5 428.8 142.7 440.7 142.7 440.7 120.8 430.7 120.8 430.7 132.7 416.9 132.7 416.9 120.8 406.9 120.8 406.9 142.7 418.8 142.7 418.8 156.5 406.9 156.5 406.9 178.4 416.9 178.4 416.9 166.5 442.6 166.5 442.6 180.3 430.7 180.3 430.7 190.3 442.6 190.3 442.6 204.1 416.9 204.1 416.9 192.2 406.9 192.2 406.9 214.1 418.8 214.1 418.8 227.9 406.9 227.9 406.9 249.8 416.9 249.8 416.9 237.9 430.7 237.9 430.7 249.8 440.7 249.8 440.7 227.9 428.8 227.9 428.8 214.1 454.5 214.1 454.5 226 464.5 226 464.5 214.1 490.2 214.1 490.2 227.9 478.3 227.9 478.3 237.9 490.2 237.9 490.2 251.7 464.5 251.7 464.5 239.8 454.5 239.8 454.5 273.6 464.5 273.6 464.5 261.7 490.2 261.7 490.2 275.5 478.3 275.5 478.3 285.5 490.2 285.5 490.2 299.3 464.5 299.3 464.5 287.4 454.5 287.4 454.5 299.3 428.8 299.3 428.8 285.5 440.7 285.5 440.7 263.6 430.7 263.6 430.7 275.5 416.9 275.5 416.9 263.6 406.9 263.6 406.9 285.5 418.8 285.5 418.8 299.3 406.9 299.3 406.9 321.2 416.9 321.2 416.9 309.3 442.6 309.3 442.6 323.1 430.7 323.1 430.7 333.1 442.6 333.1 442.6 346.9 416.9 346.9 416.9 335 406.9 335 406.9 356.9 418.8 356.9 418.8 370.7 406.9 370.7 406.9 392.6 416.9 392.6 416.9 380.7 430.7 380.7 430.7 392.6 440.7 392.6 440.7 370.7 428.8 370.7 428.8 356.9 466.4 356.9 466.4 370.7 454.5 370.7 454.5 392.6 464.5 392.6 464.5 380.7 478.3 380.7 478.3 392.6 488.3 392.6 488.3 370.7 476.4 370.7 476.4 356.9 488.3 356.9 488.3 335 478.3 335 478.3 346.9 452.6 346.9 452.6 333.1 464.5 333.1 464.5 323.1 452.6 323.1 452.6 309.3 478.3 309.3 478.3 321.2 488.3 321.2 488.3 309.3 502.1 309.3 502.1 321.2 512.1 321.2 512.1 309.3 537.8 309.3 537.8 323.1 525.9 323.1 525.9 333.1 537.8 333.1 537.8 346.9 512.1 346.9 512.1 335 502.1 335 502.1 356.9 514 356.9 514 370.7 502.1 370.7 502.1 392.6 512.1 392.6 512.1 380.7 525.9 380.7 525.9 392.6 535.9 392.6 535.9 370.7 524 370.7 524 356.9 561.6 356.9 561.6 370.7 549.7 370.7 549.7 392.6 559.7 392.6 559.7 380.7 573.5 380.7 573.5 392.6 583.5 392.6 583.5 370.7 571.6 370.7 571.6 356.9 583.5 356.9 583.5 335 573.5 335 573.5 346.9 547.8 346.9 547.8 333.1 559.7 333.1 559.7 323.1 547.8 323.1 547.8 309.3 573.5 309.3 573.5 321.2 583.5 321.2 583.5 299.3 571.6 299.3 571.6 285.5 583.5 285.5 583.5 263.6 573.5 263.6 573.5 275.5 559.7 275.5 559.7 263.6 549.7 263.6 549.7 285.5 561.6 285.5 561.6 299.3 535.9 299.3 535.9 287.4 525.9 287.4 525.9 299.3 500.2 299.3 500.2 285.5 512.1 285.5 512.1 275.5 500.2 275.5 500.2 261.7 525.9 261.7 525.9 273.6 535.9 273.6 535.9 239.8 525.9 239.8 525.9 251.7 500.2 251.7 500.2 237.9 512.1 237.9 512.1 227.9 500.2 227.9 500.2 214.1 525.9 214.1 525.9 226 535.9 226 535.9 214.1 561.6 214.1 561.6 227.9 549.7 227.9 549.7 249.8 559.7 249.8 559.7 237.9 573.5 237.9 573.5 249.8 583.5 249.8 583.5 227.9 571.6 227.9 571.6 214.1 609.2 214.1 609.2 227.9 597.3 227.9 597.3 249.8 607.3 249.8 607.3 237.9 621.1 237.9 621.1 249.8 631.1 249.8 631.1 227.9 619.2 227.9 619.2 214.1 644.9 214.1 644.9 226 654.9 226 654.9 214.1 680.6 214.1 680.6 227.9 668.7 227.9 668.7 237.9 680.6 237.9 680.6 251.7 654.9 251.7 654.9 239.8 644.9 239.8 644.9 273.6 654.9 273.6 654.9 261.7 680.6 261.7 680.6 275.5 668.7 275.5 668.7 285.5 680.6 285.5 680.6 299.3 654.9 299.3 654.9 287.4 644.9 287.4 644.9 299.3 619.2 299.3 619.2 285.5 631.1 285.5 631.1 263.6 621.1 263.6 621.1 275.5 607.3 275.5 607.3 263.6 597.3 263.6 597.3 285.5 609.2 285.5 609.2 299.3 597.3 299.3 597.3 321.2 607.3 321.2 607.3 309.3 633 309.3 633 323.1 621.1 323.1 621.1 333.1 633 333.1 633 346.9 607.3 346.9 607.3 335 597.3 335 597.3 356.9 609.2 356.9 609.2 370.7 597.3 370.7 597.3 392.6 607.3 392.6 607.3 380.7 621.1 380.7 621.1 392.6 631.1 392.6 631.1 370.7 619.2 370.7 619.2 356.9 656.8 356.9 656.8 370.7 644.9 370.7 644.9 392.6 654.9 392.6 654.9 380.7 668.7 380.7 668.7 392.6 678.7 392.6 678.7 370.7 666.8 370.7 666.8 356.9 678.7 356.9 678.7 335 668.7 335 668.7 346.9 643 346.9 643 333.1 654.9 333.1 654.9 323.1 643 323.1 643 309.3 668.7 309.3 668.7 321.2 678.7 321.2 678.7 309.3 692.5 309.3 692.5 321.2 702.5 321.2 702.5 309.3 728.2 309.3 728.2 323.1 716.3 323.1 716.3 333.1 728.2 333.1 728.2 346.9 702.5 346.9 702.5 335 692.5 335 692.5 356.9 704.4 356.9 704.4 370.7 692.5 370.7 692.5 392.6 702.5 392.6 702.5 380.7 716.3 380.7 716.3 392.6 726.3 392.6 726.3 370.7 714.4 370.7 714.4 356.9 752 356.9 752 370.7 740.1 370.7 740.1 392.6 750.1 392.6 750.1 380.7 763.9 380.7 763.9 392.6 773.9 392.6 773.9 370.7 762 370.7 762 356.9 773.9 356.9 773.9 335 763.9 335 763.9 346.9 738.2 346.9 738.2 333.1 750.1 333.1 750.1 323.1 738.2 323.1 738.2 309.3 763.9 309.3 763.9 321.2 773.9 321.2 773.9 299.3 762 299.3 762 285.5 773.9 285.5 773.9 263.6 763.9 263.6 763.9 275.5 750.1 275.5 750.1 263.6 740.1 263.6 740.1 285.5 752 285.5 752 299.3 726.3 299.3 726.3 287.4 716.3 287.4 716.3 299.3 690.6 299.3 690.6 285.5 702.5 285.5 702.5 275.5 690.6 275.5 690.6 261.7 716.3 261.7 716.3 273.6 726.3 273.6 726.3 239.8 716.3 239.8 716.3 251.7 690.6 251.7 690.6 237.9 702.5 237.9 702.5 227.9 690.6 227.9 690.6 214.1 716.3 214.1 716.3 226 726.3 226 726.3 214.1 752 214.1 752 227.9 740.1 227.9 740.1 249.8 750.1 249.8 750.1 237.9 763.9 237.9 763.9 249.8 773.9 249.8 773.9 227.9 762 227.9 762 214.1 773.9 214.1 773.9 192.2 763.9 192.2 763.9 204.1 738.2 204.1 738.2 190.3 750.1 190.3 750.1 180.3 738.2 180.3 738.2 166.5 763.9 166.5 763.9 178.4 773.9 178.4 773.9 156.5 762 156.5 762 142.7 773.9 142.7 773.9 120.8 763.9 120.8 763.9 132.7 750.1 132.7 750.1 120.8 740.1 120.8 740.1 142.7 752 142.7 752 156.5 714.4 156.5 714.4 142.7 726.3 142.7 726.3 120.8 716.3 120.8 716.3 132.7 702.5 132.7 702.5 120.8 692.5 120.8 692.5 142.7 704.4 142.7 704.4 156.5 692.5 156.5 692.5 178.4 702.5 178.4 702.5 166.5 728.2 166.5 728.2 180.3 716.3 180.3 716.3 190.3 728.2 190.3 728.2 204.1 702.5 204.1 702.5 192.2 692.5 192.2 692.5 204.1 666.8 204.1 666.8 190.3 678.7 190.3 678.7 168.4 668.7 168.4 668.7 180.3 654.9 180.3 654.9 168.4 644.9 168.4 644.9 190.3 656.8 190.3 656.8 204.1 631.1 204.1 631.1 192.2 621.1 192.2 621.1 204.1 595.4 204.1 595.4 190.3 607.3 190.3 607.3 180.3 595.4 180.3 595.4 166.5 621.1 166.5 621.1 178.4 631.1 178.4 631.1 144.6 621.1 144.6 621.1 156.5 595.4 156.5 595.4 142.7 607.3 142.7 607.3 132.7 595.4 132.7 595.4 118.9 621.1 118.9 621.1 130.8 631.1 130.8 631.1 118.9 656.8 118.9 656.8 132.7 644.9 132.7 644.9 154.6 654.9 154.6 654.9 142.7 668.7 142.7 668.7 154.6 678.7 154.6 678.7 132.7 666.8 132.7 666.8 118.9 678.7 118.9 678.7 108.9 666.8 108.9 666.8 95.1 678.7 95.1 678.7 73.2 668.7 73.2 668.7 85.1 654.9 85.1 654.9 73.2 644.9 73.2 644.9 95.1 656.8 95.1 656.8 108.9 631.1 108.9 631.1 97 621.1 97 621.1 108.9 595.4 108.9 595.4 95.1 607.3 95.1 607.3 85.1 595.4 85.1 595.4 71.3 621.1 71.3 621.1 83.2 631.1 83.2 631.1 49.4 621.1 49.4 621.1 61.3 595.4 61.3 595.4 47.5 607.3 47.5 607.3 37.5 595.4 37.5 595.4 23.7 621.1 23.7 621.1 35.6 631.1 35.6 631.1 23.7 656.8 23.7 656.8 37.5 644.9 37.5 644.9 59.4 654.9 59.4 654.9 47.5 668.7 47.5 668.7 59.4 678.7 59.4 678.7 37.5 666.8 37.5 666.8 23.7 692.5 23.7 692.5 35.6 702.5 35.6 702.5 23.7 728.2 23.7 728.2 37.5 716.3 37.5 716.3 47.5 728.2 47.5 728.2 61.3 702.5 61.3 702.5 49.4 692.5 49.4 692.5 71.3 704.4 71.3 704.4 85.1 692.5 85.1 692.5 107 702.5 107 702.5 95.1 716.3 95.1 716.3 107 726.3 107 726.3 85.1 714.4 85.1 714.4 71.3 752 71.3 752 85.1 740.1 85.1 740.1 107 750.1 107 750.1 95.1 763.9 95.1 763.9 107 773.9 107 773.9 85.1 762 85.1 762 71.3 773.9 71.3 773.9 49.4 763.9 49.4 763.9 61.3 738.2 61.3 738.2 47.5 750.1 47.5 750.1 37.5 738.2 37.5 738.2 23.7 763.9 23.7 763.9 35.6 773.9 35.6 773.9 24.7 775.8 24.7 775.8 37.5 762 37.5 762 25.6 740.1 25.6 740.1 35.6 752 35.6 752 49.4 740.1 49.4 740.1 59.4 762 59.4 762 47.5 775.8 47.5 775.8 73.2 763.9 73.2 763.9 83.2 775.8 83.2 775.8 108.9 762 108.9 762 97 752 97 752 108.9 738.2 108.9 738.2 83.2 750.1 83.2 750.1 73.2 716.3 73.2 716.3 83.2 728.2 83.2 728.2 108.9 714.4 108.9 714.4 97 704.4 97 704.4 108.9 690.6 108.9 690.6 83.2 702.5 83.2 702.5 73.2 690.6 73.2 690.6 47.5 704.4 47.5 704.4 59.4 726.3 59.4 726.3 49.4 714.4 49.4 714.4 35.6 726.3 35.6 726.3 25.6 704.4 25.6 704.4 37.5 690.6 37.5 690.6 25.6 668.7 25.6 668.7 35.6 680.6 35.6 680.6 61.3 666.8 61.3 666.8 49.4 656.8 49.4 656.8 61.3 643 61.3 643 35.6 654.9 35.6 654.9 25.6 633 25.6 633 37.5 619.2 37.5 619.2 25.6 597.3 25.6 597.3 35.6 609.2 35.6 609.2 49.4 597.3 49.4 597.3 59.4 619.2 59.4 619.2 47.5 633 47.5 633 85.1 619.2 85.1 619.2 73.2 597.3 73.2 597.3 83.2 609.2 83.2 609.2 97 597.3 97 597.3 107 619.2 107 619.2 95.1 633 95.1 633 107 654.9 107 654.9 97 643 97 643 71.3 656.8 71.3 656.8 83.2 666.8 83.2 666.8 71.3 680.6 71.3 680.6 97 668.7 97 668.7 107 680.6 107 680.6 120.8 668.7 120.8 668.7 130.8 680.6 130.8 680.6 156.5 666.8 156.5 666.8 144.6 656.8 144.6 656.8 156.5 643 156.5 643 130.8 654.9 130.8 654.9 120.8 633 120.8 633 132.7 619.2 132.7 619.2 120.8 597.3 120.8 597.3 130.8 609.2 130.8 609.2 144.6 597.3 144.6 597.3 154.6 619.2 154.6 619.2 142.7 633 142.7 633 180.3 619.2 180.3 619.2 168.4 597.3 168.4 597.3 178.4 609.2 178.4 609.2 192.2 597.3 192.2 597.3 202.2 619.2 202.2 619.2 190.3 633 190.3 633 202.2 654.9 202.2 654.9 192.2 643 192.2 643 166.5 656.8 166.5 656.8 178.4 666.8 178.4 666.8 166.5 680.6 166.5 680.6 192.2 668.7 192.2 668.7 202.2 690.6 202.2 690.6 190.3 704.4 190.3 704.4 202.2 726.3 202.2 726.3 192.2 714.4 192.2 714.4 178.4 726.3 178.4 726.3 168.4 704.4 168.4 704.4 180.3 690.6 180.3 690.6 154.6 702.5 154.6 702.5 144.6 690.6 144.6 690.6 118.9 704.4 118.9 704.4 130.8 714.4 130.8 714.4 118.9 728.2 118.9 728.2 144.6 716.3 144.6 716.3 154.6 750.1 154.6 750.1 144.6 738.2 144.6 738.2 118.9 752 118.9 752 130.8 762 130.8 762 118.9 775.8 118.9 775.8 144.6 763.9 144.6 763.9 154.6 775.8 154.6 775.8 180.3 762 180.3 762 168.4 740.1 168.4 740.1 178.4 752 178.4 752 192.2 740.1 192.2 740.1 202.2 762 202.2 762 190.3 775.8 190.3 775.8 216 763.9 216 763.9 226 775.8 226 775.8 251.7 762 251.7 762 239.8 752 239.8 752 251.7 738.2 251.7 738.2 226 750.1 226 750.1 216 728.2 216 728.2 227.9 714.4 227.9 714.4 216 692.5 216 692.5 226 704.4 226 704.4 239.8 692.5 239.8 692.5 249.8 714.4 249.8 714.4 237.9 728.2 237.9 728.2 275.5 714.4 275.5 714.4 263.6 692.5 263.6 692.5 273.6 704.4 273.6 704.4 287.4 692.5 287.4 692.5 297.4 714.4 297.4 714.4 285.5 728.2 285.5 728.2 297.4 750.1 297.4 750.1 287.4 738.2 287.4 738.2 261.7 752 261.7 752 273.6 762 273.6 762 261.7 775.8 261.7 775.8 287.4 763.9 287.4 763.9 297.4 775.8 297.4 775.8 323.1 762 323.1 762 311.2 740.1 311.2 740.1 321.2 752 321.2 752 335 740.1 335 740.1 345 762 345 762 333.1 775.8 333.1 775.8 358.8 763.9 358.8 763.9 368.8 775.8 368.8 775.8 394.5 762 394.5 762 382.6 752 382.6 752 394.5 738.2 394.5 738.2 368.8 750.1 368.8 750.1 358.8 716.3 358.8 716.3 368.8 728.2 368.8 728.2 394.5 714.4 394.5 714.4 382.6 704.4 382.6 704.4 394.5 690.6 394.5 690.6 368.8 702.5 368.8 702.5 358.8 690.6 358.8 690.6 333.1 704.4 333.1 704.4 345 726.3 345 726.3 335 714.4 335 714.4 321.2 726.3 321.2 726.3 311.2 704.4 311.2 704.4 323.1 690.6 323.1 690.6 311.2 680.6 311.2 680.6 323.1 666.8 323.1 666.8 311.2 644.9 311.2 644.9 321.2 656.8 321.2 656.8 335 644.9 335 644.9 345 666.8 345 666.8 333.1 680.6 333.1 680.6 358.8 668.7 358.8 668.7 368.8 680.6 368.8 680.6 394.5 666.8 394.5 666.8 382.6 656.8 382.6 656.8 394.5 643 394.5 643 368.8 654.9 368.8 654.9 358.8 621.1 358.8 621.1 368.8 633 368.8 633 394.5 619.2 394.5 619.2 382.6 609.2 382.6 609.2 394.5 595.4 394.5 595.4 368.8 607.3 368.8 607.3 358.8 595.4 358.8 595.4 333.1 609.2 333.1 609.2 345 631.1 345 631.1 335 619.2 335 619.2 321.2 631.1 321.2 631.1 311.2 609.2 311.2 609.2 323.1 595.4 323.1 595.4 297.4 607.3 297.4 607.3 287.4 595.4 287.4 595.4 261.7 609.2 261.7 609.2 273.6 619.2 273.6 619.2 261.7 633 261.7 633 287.4 621.1 287.4 621.1 297.4 643 297.4 643 285.5 656.8 285.5 656.8 297.4 678.7 297.4 678.7 287.4 666.8 287.4 666.8 273.6 678.7 273.6 678.7 263.6 656.8 263.6 656.8 275.5 643 275.5 643 237.9 656.8 237.9 656.8 249.8 678.7 249.8 678.7 239.8 666.8 239.8 666.8 226 678.7 226 678.7 216 656.8 216 656.8 227.9 643 227.9 643 216 621.1 216 621.1 226 633 226 633 251.7 619.2 251.7 619.2 239.8 609.2 239.8 609.2 251.7 595.4 251.7 595.4 226 607.3 226 607.3 216 573.5 216 573.5 226 585.4 226 585.4 251.7 571.6 251.7 571.6 239.8 561.6 239.8 561.6 251.7 547.8 251.7 547.8 226 559.7 226 559.7 216 537.8 216 537.8 227.9 524 227.9 524 216 502.1 216 502.1 226 514 226 514 239.8 502.1 239.8 502.1 249.8 524 249.8 524 237.9 537.8 237.9 537.8 275.5 524 275.5 524 263.6 502.1 263.6 502.1 273.6 514 273.6 514 287.4 502.1 287.4 502.1 297.4 524 297.4 524 285.5 537.8 285.5 537.8 297.4 559.7 297.4 559.7 287.4 547.8 287.4 547.8 261.7 561.6 261.7 561.6 273.6 571.6 273.6 571.6 261.7 585.4 261.7 585.4 287.4 573.5 287.4 573.5 297.4 585.4 297.4 585.4 323.1 571.6 323.1 571.6 311.2 549.7 311.2 549.7 321.2 561.6 321.2 561.6 335 549.7 335 549.7 345 571.6 345 571.6 333.1 585.4 333.1 585.4 358.8 573.5 358.8 573.5 368.8 585.4 368.8 585.4 394.5 571.6 394.5 571.6 382.6 561.6 382.6 561.6 394.5 547.8 394.5 547.8 368.8 559.7 368.8 559.7 358.8 525.9 358.8 525.9 368.8 537.8 368.8 537.8 394.5 524 394.5 524 382.6 514 382.6 514 394.5 500.2 394.5 500.2 368.8 512.1 368.8 512.1 358.8 500.2 358.8 500.2 333.1 514 333.1 514 345 535.9 345 535.9 335 524 335 524 321.2 535.9 321.2 535.9 311.2 514 311.2 514 323.1 500.2 323.1 500.2 311.2 490.2 311.2 490.2 323.1 476.4 323.1 476.4 311.2 454.5 311.2 454.5 321.2 466.4 321.2 466.4 335 454.5 335 454.5 345 476.4 345 476.4 333.1 490.2 333.1 490.2 358.8 478.3 358.8 478.3 368.8 490.2 368.8 490.2 394.5 476.4 394.5 476.4 382.6 466.4 382.6 466.4 394.5 452.6 394.5 452.6 368.8 464.5 368.8 464.5 358.8 430.7 358.8 430.7 368.8 442.6 368.8 442.6 394.5 428.8 394.5 428.8 382.6 418.8 382.6 418.8 394.5 405 394.5 405 368.8 416.9 368.8 416.9 358.8 405 358.8 405 333.1 418.8 333.1 418.8 345 440.7 345 440.7 335 428.8 335 428.8 321.2 440.7 321.2 440.7 311.2 418.8 311.2 418.8 323.1 405 323.1 405 297.4 416.9 297.4 416.9 287.4 405 287.4 405 261.7 418.8 261.7 418.8 273.6 428.8 273.6 428.8 261.7 442.6 261.7 442.6 287.4 430.7 287.4 430.7 297.4 452.6 297.4 452.6 285.5 466.4 285.5 466.4 297.4 488.3 297.4 488.3 287.4 476.4 287.4 476.4 273.6 488.3 273.6 488.3 263.6 466.4 263.6 466.4 275.5 452.6 275.5 452.6 237.9 466.4 237.9 466.4 249.8 488.3 249.8 488.3 239.8 476.4 239.8 476.4 226 488.3 226 488.3 216 466.4 216 466.4 227.9 452.6 227.9 452.6 216 430.7 216 430.7 226 442.6 226 442.6 251.7 428.8 251.7 428.8 239.8 418.8 239.8 418.8 251.7 405 251.7 405 226 416.9 226 416.9 216 405 216 405 190.3 418.8 190.3 418.8 202.2 440.7 202.2 440.7 192.2 428.8 192.2 428.8 178.4 440.7 178.4 440.7 168.4 418.8 168.4 418.8 180.3 405 180.3 405 154.6 416.9 154.6 416.9 144.6 405 144.6 405 118.9 418.8 118.9 418.8 130.8 428.8 130.8 428.8 118.9 442.6 118.9 442.6 144.6 430.7 144.6 430.7 154.6 464.5 154.6 464.5 144.6 452.6 144.6 452.6 118.9 466.4 118.9 466.4 130.8 476.4 130.8 476.4 118.9 490.2 118.9 490.2 144.6 478.3 144.6 478.3 154.6 490.2 154.6 490.2 180.3 476.4 180.3 476.4 168.4 454.5 168.4 454.5 178.4 466.4 178.4 466.4 192.2 454.5 192.2 454.5 202.2 476.4 202.2 476.4 190.3 490.2 190.3 490.2 202.2 512.1 202.2 512.1 192.2 500.2 192.2 500.2 166.5 514 166.5 514 178.4 524 178.4 524 166.5 537.8 166.5 537.8 192.2 525.9 192.2 525.9 202.2 547.8 202.2 547.8 190.3 561.6 190.3 561.6 202.2 583.5 202.2 583.5 192.2 571.6 192.2 571.6 178.4 583.5 178.4 583.5 168.4 561.6 168.4 561.6 180.3 547.8 180.3 547.8 142.7 561.6 142.7 561.6 154.6 583.5 154.6 583.5 144.6 571.6 144.6 571.6 130.8 583.5 130.8 583.5 120.8 561.6 120.8 561.6 132.7 547.8 132.7 547.8 120.8 525.9 120.8 525.9 130.8 537.8 130.8 537.8 156.5 524 156.5 524 144.6 514 144.6 514 156.5 500.2 156.5 500.2 130.8 512.1 130.8 512.1 120.8 500.2 120.8 500.2 107 512.1 107 512.1 97 500.2 97 500.2 71.3 514 71.3 514 83.2 524 83.2 524 71.3 537.8 71.3 537.8 97 525.9 97 525.9 107 547.8 107 547.8 95.1 561.6 95.1 561.6 107 583.5 107 583.5 97 571.6 97 571.6 83.2 583.5 83.2 583.5 73.2 561.6 73.2 561.6 85.1 547.8 85.1 547.8 47.5 561.6 47.5 561.6 59.4 583.5 59.4 583.5 49.4 571.6 49.4 571.6 35.6 583.5 35.6 583.5 25.6 561.6 25.6 561.6 37.5 547.8 37.5 547.8 25.6 525.9 25.6 525.9 35.6 537.8 35.6 537.8 61.3 524 61.3 524 49.4 514 49.4 514 61.3 500.2 61.3 500.2 35.6 512.1 35.6 512.1 25.6 490.2 25.6 490.2 37.5 476.4 37.5 476.4 25.6 454.5 25.6 454.5 35.6 466.4 35.6 466.4 49.4 454.5 49.4 454.5 59.4 476.4 59.4 476.4 47.5 490.2 47.5 490.2 73.2 478.3 73.2 478.3 83.2 490.2 83.2 490.2 108.9 476.4 108.9 476.4 97 466.4 97 466.4 108.9 452.6 108.9 452.6 83.2 464.5 83.2 464.5 73.2 430.7 73.2 430.7 83.2 442.6 83.2 442.6 108.9 428.8 108.9 428.8 97 418.8 97 418.8 108.9 405 108.9 405 83.2 416.9 83.2 416.9 73.2 405 73.2 405 47.5 418.8 47.5 418.8 59.4 440.7 59.4 440.7 49.4 428.8 49.4 428.8 35.6 440.7 35.6 440.7 25.6 418.8 25.6 418.8 37.5 405 37.5 405 25.6 383.1 25.6 383.1 35.6 395 35.6 395 61.3 381.2 61.3 381.2 49.4 371.2 49.4 371.2 61.3 357.4 61.3 357.4 35.6 369.3 35.6 369.3 25.6 347.4 25.6 347.4 37.5 333.6 37.5 333.6 25.6 311.7 25.6 311.7 35.6 323.6 35.6 323.6 49.4 311.7 49.4 311.7 59.4 333.6 59.4 333.6 47.5 347.4 47.5 347.4 85.1 333.6 85.1 333.6 73.2 311.7 73.2 311.7 83.2 323.6 83.2 323.6 97 311.7 97 311.7 107 333.6 107 333.6 95.1 347.4 95.1 347.4 107 369.3 107 369.3 97 357.4 97 357.4 71.3 371.2 71.3 371.2 83.2 381.2 83.2 381.2 71.3 395 71.3 395 97 383.1 97 383.1 107 395 107 395 132.7 381.2 132.7 381.2 120.8 359.3 120.8 359.3 130.8 371.2 130.8 371.2 144.6 359.3 144.6 359.3 154.6 381.2 154.6 381.2 142.7 395 142.7 395 168.4 383.1 168.4 383.1 178.4 395 178.4 395 204.1 381.2 204.1 381.2 192.2 371.2 192.2 371.2 204.1 357.4 204.1 357.4 178.4 369.3 178.4 369.3 168.4 335.5 168.4 335.5 178.4 347.4 178.4 347.4 204.1 333.6 204.1 333.6 192.2 323.6 192.2 323.6 204.1 309.8 204.1 309.8 178.4 321.7 178.4 321.7 168.4 309.8 168.4 309.8 142.7 323.6 142.7 323.6 154.6 345.5 154.6 345.5 144.6 333.6 144.6 333.6 130.8 345.5 130.8 345.5 120.8 323.6 120.8 323.6 132.7 309.8 132.7 309.8 120.8 299.8 120.8 299.8 132.7 286 132.7 286 120.8 264.1 120.8 264.1 130.8 276 130.8 276 144.6 264.1 144.6 264.1 154.6 286 154.6 286 142.7 299.8 142.7 299.8 168.4 287.9 168.4 287.9 178.4 299.8 178.4 299.8 204.1 286 204.1 286 192.2 276 192.2 276 204.1 262.2 204.1 262.2 178.4 274.1 178.4 274.1 168.4 240.3 168.4 240.3 178.4 252.2 178.4 252.2 204.1 238.4 204.1 238.4 192.2 228.4 192.2 228.4 204.1 214.6 204.1 214.6 178.4 226.5 178.4 226.5 168.4 214.6 168.4 214.6 142.7 228.4 142.7 228.4 154.6 250.3 154.6 250.3 144.6 238.4 144.6 238.4 130.8 250.3 130.8 250.3 120.8 228.4 120.8 228.4 132.7 214.6 132.7 214.6 107 226.5 107 226.5 97 214.6 97 214.6 71.3 228.4 71.3 228.4 83.2 238.4 83.2 238.4 71.3 252.2 71.3 252.2 97 240.3 97 240.3 107 262.2 107 262.2 95.1 276 95.1 276 107 297.9 107 297.9 97 286 97 286 83.2 297.9 83.2 297.9 73.2 276 73.2 276 85.1 262.2 85.1 262.2 47.5 276 47.5 276 59.4 297.9 59.4 297.9 49.4 286 49.4 286 35.6 297.9 35.6 297.9 25.6 276 25.6 276 37.5 262.2 37.5 262.2 25.6 240.3 25.6 240.3 35.6 252.2 35.6 252.2 61.3 238.4 61.3 238.4 49.4 228.4 49.4 228.4 61.3 214.6 61.3 214.6 35.6 226.5 35.6 226.5 25.6 204.6 25.6 204.6 37.5 190.8 37.5 190.8 25.6 168.9 25.6 168.9 35.6 180.8 35.6 180.8 49.4 168.9 49.4 168.9 59.4 190.8 59.4 190.8 47.5 204.6 47.5 204.6 73.2 192.7 73.2 192.7 83.2 204.6 83.2 204.6 108.9 190.8 108.9 190.8 97 180.8 97 180.8 108.9 167 108.9 167 83.2 178.9 83.2 178.9 73.2 145.1 73.2 145.1 83.2 157 83.2 157 108.9 143.2 108.9 143.2 97 133.2 97 133.2 108.9 119.4 108.9 119.4 83.2 131.3 83.2 131.3 73.2 119.4 73.2 119.4 47.5 133.2 47.5 133.2 59.4 155.1 59.4 155.1 49.4 143.2 49.4 143.2 35.6 155.1 35.6 155.1 25.6 133.2 25.6 133.2 37.5 119.4 37.5 119.4 25.6 97.5 25.6 97.5 35.6 109.4 35.6 109.4 61.3 95.6 61.3 95.6 49.4 85.6 49.4 85.6 61.3 71.8 61.3 71.8 35.6 83.7 35.6 83.7 25.6 61.8 25.6 61.8 37.5 48 37.5 48 25.6 26.1 25.6 26.1 35.6 38 35.6 38 49.4 26.1 49.4 26.1 59.4 48 59.4 48 47.5 61.8 47.5 61.8 85.1 48 85.1 48 73.2 26.1 73.2 26.1 83.2 38 83.2 38 97 26.1 97 26.1 107 48 107 48 95.1 61.8 95.1 61.8 107 83.7 107 83.7 97 71.8 97 71.8 71.3 85.6 71.3 85.6 83.2 95.6 83.2 95.6 71.3 109.4 71.3 109.4 97 97.5 97 97.5 107 109.4 107 109.4 120.8 97.5 120.8 97.5 130.8 109.4 130.8 109.4 156.5 95.6 156.5 95.6 144.6 85.6 144.6 85.6 156.5 71.8 156.5 71.8 130.8 83.7 130.8 83.7 120.8 61.8 120.8 61.8 132.7 48 132.7 48 120.8 26.1 120.8 26.1 130.8 38 130.8 38 144.6 26.1 144.6 26.1 154.6 48 154.6 48 142.7 61.8 142.7 61.8 180.3 48 180.3 48 168.4 26.1 168.4 26.1 178.4 38 178.4 38 192.2 26.1 192.2 26.1 202.2 48 202.2 48 190.3 61.8 190.3 61.8 202.2 83.7 202.2 83.7 192.2 71.8 192.2 71.8 166.5 85.6 166.5 85.6 178.4 95.6 178.4 95.6 166.5 109.4 166.5 109.4 192.2 97.5 192.2 97.5 202.2 119.4 202.2 119.4 190.3 133.2 190.3 133.2 202.2 155.1 202.2 155.1 192.2 143.2 192.2 143.2 178.4 155.1 178.4 155.1 168.4 133.2 168.4 133.2 180.3 119.4 180.3 119.4 154.6 131.3 154.6 131.3 144.6 119.4 144.6 119.4 118.9 133.2 118.9 133.2 130.8 143.2 130.8 143.2 118.9 157 118.9 157 144.6 145.1 144.6 145.1 154.6 178.9 154.6 178.9 144.6 167 144.6 167 118.9 180.8 118.9 180.8 130.8 190.8 130.8 190.8 118.9 204.6 118.9 204.6 144.6 192.7 144.6 192.7 154.6 204.6 154.6 204.6 180.3 190.8 180.3 190.8 168.4 168.9 168.4 168.9 178.4 180.8 178.4 180.8 192.2 168.9 192.2 168.9 202.2 190.8 202.2 190.8 190.3 204.6 190.3 204.6 227.9 190.8 227.9 190.8 216 168.9 216 168.9 226 180.8 226 180.8 239.8 168.9 239.8 168.9 249.8 190.8 249.8 190.8 237.9 204.6 237.9 204.6 263.6 192.7 263.6 192.7 273.6 204.6 273.6 204.6 299.3 190.8 299.3 190.8 287.4 180.8 287.4 180.8 299.3 167 299.3 167 273.6 178.9 273.6 178.9 263.6 145.1 263.6 145.1 273.6 157 273.6 157 299.3 143.2 299.3 143.2 287.4 133.2 287.4 133.2 299.3 119.4 299.3 119.4 273.6 131.3 273.6 131.3 263.6 119.4 263.6 119.4 237.9 133.2 237.9 133.2 249.8 155.1 249.8 155.1 239.8 143.2 239.8 143.2 226 155.1 226 155.1 216 133.2 216 133.2 227.9 119.4 227.9 119.4 216 97.5 216 97.5 226 109.4 226 109.4 251.7 95.6 251.7 95.6 239.8 85.6 239.8 85.6 251.7 71.8 251.7 71.8 226 83.7 226 83.7 216 61.8 216 61.8 227.9 48 227.9 48 216 26.1 216 26.1 226 38 226 38 239.8 26.1 239.8 26.1 249.8 48 249.8 48 237.9 61.8 237.9 61.8 275.5 48 275.5 48 263.6 26.1 263.6 26.1 273.6 38 273.6 38 287.4 26.1 287.4 26.1 297.4 48 297.4 48 285.5 61.8 285.5 61.8 297.4 83.7 297.4 83.7 287.4 71.8 287.4 71.8 261.7 85.6 261.7 85.6 273.6 95.6 273.6 95.6 261.7 109.4 261.7 109.4 287.4 97.5 287.4 97.5 297.4 109.4 297.4 109.4 311.2 97.5 311.2 97.5 321.2 109.4 321.2 109.4 346.9 95.6 346.9 95.6 335 85.6 335 85.6 346.9 71.8 346.9 71.8 321.2 83.7 321.2 83.7 311.2 61.8 311.2 61.8 323.1 48 323.1 48 311.2 26.1 311.2 26.1 321.2 38 321.2 38 335 26.1 335 26.1 345 48 345 48 333.1 61.8 333.1 61.8 370.7 48 370.7 48 358.8 26.1 358.8 26.1 368.8 38 368.8 38 382.6 26.1 382.6 26.1 392.6 48 392.6 48 380.7 61.8 380.7 61.8 392.6 83.7 392.6 83.7 382.6 71.8 382.6 71.8 356.9 85.6 356.9 85.6 368.8 95.6 368.8 95.6 356.9 109.4 356.9 109.4 382.6 97.5 382.6 97.5 392.6 119.4 392.6 119.4 380.7 133.2 380.7 133.2 392.6 155.1 392.6 155.1 382.6 143.2 382.6 143.2 368.8 155.1 368.8 155.1 358.8 133.2 358.8 133.2 370.7 119.4 370.7 119.4 345 131.3 345 131.3 335 119.4 335 119.4 309.3 133.2 309.3 133.2 321.2 143.2 321.2 143.2 309.3 157 309.3 157 335 145.1 335 145.1 345 178.9 345 178.9 335 167 335 167 309.3 180.8 309.3 180.8 321.2 190.8 321.2 190.8 309.3 204.6 309.3 204.6 335 192.7 335 192.7 345 204.6 345 204.6 370.7 190.8 370.7 190.8 358.8 168.9 358.8 168.9 368.8 180.8 368.8 180.8 382.6 168.9 382.6 168.9 392.6 190.8 392.6 190.8 380.7 204.6 380.7 204.6 392.6 226.5 392.6 226.5 382.6 214.6 382.6 214.6 356.9 228.4 356.9 228.4 368.8 238.4 368.8 238.4 356.9 252.2 356.9 252.2 382.6 240.3 382.6 240.3 392.6 262.2 392.6 262.2 380.7 276 380.7 276 392.6 297.9 392.6 297.9 382.6 286 382.6 286 368.8 297.9 368.8 297.9 358.8 276 358.8 276 370.7 262.2 370.7 262.2 333.1 276 333.1 276 345 297.9 345 297.9 335 286 335 286 321.2 297.9 321.2 297.9 311.2 276 311.2 276 323.1 262.2 323.1 262.2 311.2 240.3 311.2 240.3 321.2 252.2 321.2 252.2 346.9 238.4 346.9 238.4 335 228.4 335 228.4 346.9 214.6 346.9 214.6 321.2 226.5 321.2 226.5 311.2 214.6 311.2 214.6 285.5 228.4 285.5 228.4 297.4 250.3 297.4 250.3 287.4 238.4 287.4 238.4 273.6 250.3 273.6 250.3 263.6 228.4 263.6 228.4 275.5 214.6 275.5 214.6 249.8 226.5 249.8 226.5 239.8 214.6 239.8 214.6 214.1 228.4 214.1 228.4 226 238.4 226 238.4 214.1 252.2 214.1 252.2 239.8 240.3 239.8 240.3 249.8 274.1 249.8 274.1 239.8 262.2 239.8 262.2 214.1 276 214.1 276 226 286 226 286 214.1 299.8 214.1 299.8 239.8 287.9 239.8 287.9 249.8 299.8 249.8 299.8 275.5 286 275.5 286 263.6 264.1 263.6 264.1 273.6 276 273.6 276 287.4 264.1 287.4 264.1 297.4 286 297.4 286 285.5 299.8 285.5 299.8 297.4 309.8 297.4 309.8 285.5 323.6 285.5 323.6 297.4 345.5 297.4 345.5 287.4 333.6 287.4 333.6 273.6 345.5 273.6 345.5 263.6 323.6 263.6 323.6 275.5 309.8 275.5 309.8 249.8 321.7 249.8 321.7 239.8 309.8 239.8 309.8 214.1 323.6 214.1 323.6 226 333.6 226 333.6 214.1 347.4 214.1 347.4 239.8 335.5 239.8 335.5 249.8 369.3 249.8 369.3 239.8 357.4 239.8 357.4 214.1 371.2 214.1 371.2 226 381.2 226 381.2 214.1 395 214.1 395 239.8 383.1 239.8 383.1 249.8 395 249.8 395 275.5 381.2 275.5 381.2 263.6 359.3 263.6 359.3 273.6 371.2 273.6 371.2 287.4 359.3 287.4 359.3 297.4 381.2 297.4 381.2 285.5 395 285.5 395 311.2 383.1 311.2 383.1 321.2 395 321.2 395 346.9 381.2 346.9 381.2 335 371.2 335 371.2 346.9 357.4 346.9 357.4 321.2 369.3 321.2 369.3 311.2 347.4 311.2 347.4 323.1 333.6 323.1 333.6 311.2 311.7 311.2 311.7 321.2 323.6 321.2 323.6 335 311.7 335 311.7 345 333.6 345 333.6 333.1 347.4 333.1 347.4 370.7 333.6 370.7 333.6 358.8 311.7 358.8 311.7 368.8 323.6 368.8 323.6 382.6 311.7 382.6 311.7 392.6 333.6 392.6 333.6 380.7 347.4 380.7 347.4 392.6 369.3 392.6 369.3 382.6 357.4 382.6 357.4 356.9 371.2 356.9 371.2 368.8 381.2 368.8 381.2 356.9 395 356.9 395 382.6 383.1 382.6 383.1 392.6 395 392.6 395 406.4 383.1 406.4"/></g><g><path class="e" d="M195.4,143.2s45.8,42,59.6,49.2c0,0-45,9.8-62.8,18.6"/><path class="e" d="M189.7,175.2s57.7,16.5,65.3,17.2"/></g><path class="j" d="M257.4,258.6s-18.1,26.1,1.1,75.5c14,35.8,44,63.9,68.3,76,43.1,21.4,80.2,36.2,151.1,44.3,35.8,4,67.2,1.9,92.4-4l-238-208.4-74.9,16.7Z"/><path class="i" d="M511.2,460.7c-4.9,8.4-19.5,25.2-35.7,24.3-16.2-.9-17.5,7.5-15.8,16.5,1.7,9,46.2,8.9,46.8,4.7s23.5-15.6,37.4-31.1"/><path class="g" d="M625.9,396.1c6.6-38-3.2-108.1-87.5-90.9-91.3,18.6-146.4-28.9-184.6-63.1l-6.3,10.8c-8.6,5.1-21.9,8.4-21.9,8.4,0,0-47.1,16.1-27.8,101,0,0,9.9,27.1,4.3,42.1-5.6,15-23.8,78.9-22.4,109,0,0-17.5-2.6-15.9,14.8,1.5,17.4,39.5,13.7,40.4,9.5s35.3-97.2,54.2-102.8c34.5-10.1,35.1-24.8,59.7-30.6,13.3-3.2,43.8-8.1,67.1,21.7,10.2,13.1,8.1,32.3,43.5,44.1,35.5,11.8,39.5,17.3,34.7,25.6-4.8,8.4-19,25.2-34.7,24.3-15.7-.9-17,7.5-15.4,16.5,1.6,9,44.8,8.9,45.5,4.7,.6-4.2,59.7-36.1,44.5-60.2-6.2-9.9-31.8-22.6-8-44,0,0,24.1-5.6,30.4-41.2Z"/><path class="i" d="M253.9,250.4s.4,5.6,6.3,7.2c0,0-11-3-10.4,44.3,0,0-57.1-52.4-74.3-77-17.1-24.6-19-7.2-32.9-11-13.9-3.8-14.6-38.6,.4-34.9,15,3.8,30.3,10.6,54.9,36.1,19.5,20.2,56,35.2,56,35.2Z"/><path class="g" d="M554.4,333.6s43.1,27.5,83.2-23.2c40.1-50.7-38.7-91.1,17.3-155,45.3-51.7-6.4-93.7-30.2-85.8-23.8,7.9-26.3-18.2-1.4-22.7,25-4.5,77.5,19.4,68.6,75.7-7.9,49.7-41.1,47.5-36.3,86.5,5.1,42,30.5,73.6-1.8,114.5-34.8,43.9-65.4,36.4-65.4,36.4l-33.9-26.4Z"/><path class="g" d="M258.2,154.1s-39.1,19.8-31.3,46.7c9.3,31.8,15.8,47.7,33.3,56.7,12.6,6.5,48.3,25,87.4-4.6s41.3-91.4,54.2-111l-50.1,23.5-61.4-23.3-24.6-41.9-7.5,54Z"/><path class="j" d="M238.8,226c15.6,18.7,75.6,8.8,70.9-17.9-5.2-29.4-29.2-24.7-18.9-40.5,10.3-15.8,14-20.1,14-20.1,0,0-27.9,20.7-41,21s-19.8-4-26.7,1.4c-12.3,9.4-19.2,31,1.7,56Z"/><g><path class="k" d="M243.8,180.2l13.2,4.3c1.1,.4,1.1,2.2,0,2.5l-12.8,3.1c-.7,.2-1.4-.4-1.4-1.2l-.4-7.4c0-.9,.7-1.6,1.5-1.3Z"/><path class="f" d="M229.9,184.2s1.7,16.1,12.8,6.1c0,0-2.8,15.7,17,8.9"/></g><path class="d" d="M299.7,177.3s15.7-4.3,18,10.9"/><path class="d" d="M250.7,160.1s11.2-6.8,15.3,2.8"/><g><path class="e" d="M357,206.1s-69.5-2.6-86.2-7.7c0,0,28.1,43.2,35.4,64.3"/><path class="e" d="M336.3,236.1s-58.9-32.3-65.5-37.7"/></g><path class="j" d="M624.6,69.6c6.1-2,14-.8,21.7,3.1,1.3-1.1-1-5.9,3.2-4.9,9.6,2.4-1.2-11.5,5.2-9.5,10.5,3.2,6.2-1.4,5.9-2.9-13.1-7.5-27.4-10.2-37.3-8.4-25,4.5-22.5,30.6,1.4,22.7Z"/><path class="i" d="M362.7,250s-2.4,44.7-18.4,51.9h12.6s-14.7,31-26.1,37.7c0,0,24.1-1,59.6-67.2,0,0-8.8-6.5-27.8-22.4Z"/><path class="i" d="M409.9,285l-17,30.8,14.5-5.2s-27.3,36.3-37.4,46.8c0,0,31.8-13,42.6-28.4l6.4,11.6s6.9-31.1,17.6-42.8c0,0-10.7-4.2-26.6-12.9Z"/><path class="i" d="M459,304.8s-7.4,58-27.9,71.2c0,0,38.6-19.9,51.7-67.4,0,0-14.6-1.4-23.8-3.8Z"/><path class="i" d="M503.8,309.3s-13.1,55.3-2.4,83.9c0,0,3.8-18.7,10.4-23.4,0,0,.8,5.4,5,10.9,0,0,.7-48.9,21.6-75.5l-34.7,4.1Z"/><path class="i" d="M556.4,302.7s-10,41.1,8.2,60.5c0,0-1.3-48,14.7-59.1,0,0-9.7-3-22.9-1.4Z"/><path class="i" d="M367.6,217.2s-14.1,1.8-23.4,0l7.4,4.8s-16.6,1-20.7-2.4c0,0,18.7,18,28,16l8.7-18.4Z"/><path class="i" d="M324,154.9s7.1,13.5,6.9,20.3c0,0,8.5-10.4,7.4-14.9l-14.3-5.4Z"/><path class="i" d="M290.2,142.1s-12.4,4.3-12.4,11.3c0,0,16.7-9.6,21.8-7.7l-9.4-3.6Z"/><path class="j" d="M562,536.7c.5-.9-2.3-.1-3.6,0-1.3,.1,.5-2.1,1.2-2.7,.7-.6-1.7-.8-3.4-.1-1.7,.7-1.4-1-1.3-2.3s-3.4,2.1-4.8,2.3c-1.4,.3,0-3.1,.9-3.5,.9-.4,.5-4.3,0-3.5s-6.2,.6-4.7,.5c1.6-.1,2.6-6.1,1.8-4.8s-2.8,1.4-3.6,1.7c-.8,.3-.7-1.7-.7-1.7,0,0-3.1,.1-2.4-.8,.6-.9-.5-2.3-1.9-2.2-.3,0-.9-.2-1.7-.6-2.8,.9-5.8,1.4-8.8,1.3-15.7-.9-17,7.5-15.4,16.5,1.6,9,44.8,8.9,45.5,4.7,0-.5,1.1-1.5,2.7-2.8-1.9-.1-.3-1.2,.2-2.1Z"/><path class="i" d="M349.2,442.7s-35,13.4-55.4-11c0,0-4.8,18.5-6.2,24.7-1.4,6.2,24.7,24.5,43.5,16.7,0,0,13.6-20.4,18-30.4Z"/><path class="i" d="M321.1,495s-30.9,.8-38.5-13.5c0,0-2.2,15.3-2.4,18.3s20.3,16.3,34.9,9.2l5.9-14.1Z"/><path class="i" d="M553.6,479.7s22.2-4.1,32.1-23.3c0,0,1,7.1,10.1,16.3,0,0-15.2,21-30.5,17.5,0,0-.5-5.3-11.7-10.6Z"/><path class="i" d="M562.6,497.6s24.2,8,40.7,2.1c0,0-5.5,11-19.2,21.7,0,0-19.5-5.2-27.5-16.1l6-7.8Z"/><path class="m" d="M233.1,240.3s-10.6,25.7,0,45.9c0,0-19.2-18-25.4-25,0,0-.1-23.1,9.2-30.6l16.3,9.8Z"/><path class="m" d="M202.4,219.5s-6.3,10.7-5.5,30.5c0,0-16.1-16.8-21.4-25.1,0,0,2.7-12.3,13.4-18.6,0,0,4,2.9,13.4,13.2Z"/><path class="m" d="M492.9,479.7s7.3-3.5,14.3-13.4c0,0,7.9,12.3,33.2,12.4,0,0-9.8,9.1-19.2,16,0,0-19.1-.9-28.3-15.1Z"/><path class="i" d="M632.9,315.9s8.8,13.5,20.7,7.7l7.7-11.4s-12.2,.4-19.3-8.3l-9.2,12Z"/><path class="i" d="M648.8,286.2s10.7,9,20.9-1.3c0,0,.7-12.8-.8-16.9,0,0-11.3,7.2-19.3,3.4l-.7,14.7Z"/><path class="i" d="M644.1,249.7s13.8,3.8,19.3-5.6l-4.6-17.5s-11.9,9.4-20.5,4.6l5.8,18.5Z"/><g><path class="l" d="M124.1,63.6c9.1-9.3,18.5-18.9-3.8-42.1-1.4-1.4-2.6-2.8-3.8-4.1h-5.4c1.9,2.1,4,4.4,6.3,6.9,19.6,20.4,12.7,27.5,3.9,36.5-4.9,5-10.4,10.6-11.4,19-2.8,22.5,12.6,43.6,13.3,44.5l3.2-2.4c-.2-.2-15.1-20.7-12.6-41.7,.9-7,5.7-11.9,10.3-16.7Z"/><path class="n" d="M130.5,130.5s19.9,24-6.7,48.7c0,0-29-18.5-3.8-48.1,0,0-20.6-9.2-12.6-23.4l17.4,15.5,12.2-15.8s7.8,10-6.5,23.1Z"/></g></svg>